<svg xmlns="http://www.w3.org/2000/svg" viewBox="0 0 64 64" xmlns:xlink="http://www.w3.org/1999/xlink">
 <g transform="translate(-165.58-698.66)">
  <path transform="matrix(-.70712-.70709.70712-.70709 0 0)" d="m-654.56-375.16h19v18.999h-19z" style="fill:#efa724"/>
  <path transform="matrix(-.70713-.70709.70713-.70709 0 0)" d="m-654.56-397.79h19v18.998h-19z" style="fill:#932279"/>
  <g style="fill:#9ccd2a">
   <path d="m176.13 709.16h18.95v18.948h-18.95z"/>
   <path transform="matrix(-.70713-.70708.70713-.70708 0 0)" d="m-677.16-397.82h18.95v18.948h-18.95z"/>
  </g>
  <path d="m176.13 733.11h19v18.998h-19z" style="fill:#262577"/>
  <path transform="matrix(-.70713-.70709.70713-.70709 0 0)" d="m-677.18-375.17h19v18.998h-19z" id="SVGCleanerId_0" style="fill:#262577"/>
  <path d="m200.13 709.11h18.999v18.998h-18.999z" style="fill:#932279"/>
  <use xlink:href="#SVGCleanerId_0"/>
  <path d="m200.13 733.11h18.999v18.998h-18.999z" style="fill:#efa724"/>
  <g style="fill:#fff">
   <path d="m197.58 728.81l.354-.354 13.435-13.435.354-.354-.354-.354-13.435-13.435-.354-.354-.354.354-13.435 13.435-.354.354.354.354 13.435 13.435.354.354m0-1.414l-12.728-12.728 12.728-12.728 12.728 12.728-12.728 12.728"/>
   <path d="m181.58 744.8l.354-.354 13.413-13.413.354-.354-.354-.354-13.435-13.435-.354-.354-.354.354-13.413 13.413-.354.354.354.354 13.435 13.435.354.354m0-1.414l-12.728-12.728 12.706-12.705 12.728 12.728-12.706 12.705"/>
   <path d="m175.63 708.66v.5 18.938.5h.5 18.969.5v-.5-18.938-.5h-.5-18.969-.5m1 1h17.969v17.938h-17.969v-17.938"/>
   <path d="m197.53 760.8l.354-.354 13.391-13.39.354-.354-.354-.354-13.391-13.39-.354-.354-.354.354-13.391 13.39-.354.354.354.354 13.391 13.39.354.354m0-1.414l-12.684-12.683 12.684-12.683 12.684 12.683-12.684 12.683"/>
   <path d="m175.63 732.59v.5 19 .5h.5 19 .5v-.5-19-.5h-.5-19-.5m1 1h18v18h-18v-18"/>
   <path d="m213.58 744.8l.354-.354 13.435-13.435.354-.354-.354-.354-13.435-13.435-.354-.354-.354.354-13.435 13.435-.354.354.354.354 13.435 13.435.354.354m0-1.414l-12.728-12.728 12.728-12.728 12.728 12.728-12.728 12.728"/>
   <path d="m199.63 708.59v.5 19 .5h.5 19 .5v-.5-19-.5h-.5-19-.5m1 1h18v18h-18v-18"/>
   <path d="m199.63 732.59v.5 19 .5h.5 19 .5v-.5-19-.5h-.5-19-.5m1 1h18v18h-18v-18"/>
  </g>
  <g transform="translate(165.58 698.66)">
   <path d="m43.23 24.14l4.772-4.772 2.483 2.481 2.483 2.481v2.291 2.291h-7.255-7.255l4.772-4.772" style="fill:#262577"/>
   <path d="m43.23 24.14l4.772-4.772 2.483 2.481 2.483 2.481v2.291 2.291h-7.255-7.255l4.772-4.772" style="fill:#932279"/>
  </g>
 </g>
</svg>
