<svg xmlns="http://www.w3.org/2000/svg" viewBox="0 0 136 213.91">
 <g transform="translate(499.43-362.55)">
  <g transform="translate(-624.64-151.82)" style="fill:#2397d4">
   <path d="m177.89 597.13h-.001c-6.673 0-12.11-5.427-12.11-12.1-.001-6.691 5.425-12.13 12.1-12.132 6.683 0 12.12 5.427 12.12 12.1 0 6.691-5.425 12.13-12.1 12.133z"/>
   <path d="m210.61 588.24c-6.231 0-11.302-5.066-11.307-11.292-.001-6.242 5.061-11.316 11.296-11.321 6.239 0 11.311 5.065 11.317 11.291 0 6.242-5.062 11.316-11.296 11.323h-.001"/>
   <path transform="matrix(1.44217 0 0 1.44217 215.72 578.6)" d="m-10-15.701c0 3.866-3.134 7-7 7-3.866 0-7-3.134-7-7 0-3.866 3.134-7 7-7 3.866 0 7 3.134 7 7"/>
   <path transform="matrix(.80761 0 0 .80761 140.73 552.34)" d="m94-16.522c0 6.351-5.149 11.5-11.5 11.5-6.351 0-11.5-5.149-11.5-11.5 0-6.351 5.149-11.5 11.5-11.5 6.351 0 11.5 5.149 11.5 11.5"/>
   <path d="m11-37.522c0 5.799-4.701 10.5-10.5 10.5-5.799 0-10.5-4.701-10.5-10.5 0-5.799 4.701-10.5 10.5-10.5 5.799 0 10.5 4.701 10.5 10.5" transform="matrix(.76915 0 0 .76915 187.19 551.3)"/>
  </g>
  <path d="m-480.5 456.22c-10.45 13.545-18.926 28.781-18.926 47.24 0 40.01 30.358 73 68 73 37.64 0 68-32.993 68-73 0-18.461-8.489-33.21-19.53-47.24-4.14-4.345-10.118-3.699-14.469-.919-12.733 6.589-19.606 9.221-34 9.156-13.922-.062-21.237-2.336-33.97-9.277-4.351-2.659-10.964-3.305-15.1 1.039m9.07 11.238c13.198 7.298 24.969 11 40 11 15.04 0 26.795-3.703 40-11 7.205 10.16 14 22.758 14 36 0 32.801-24.18 59-54 59-29.826 0-55-26.2-55-59 0-13.225 7.779-25.832 15-36" style="fill:#262f45;color:#000"/>
 </g>
</svg>
