<svg xmlns="http://www.w3.org/2000/svg" viewBox="0 0 500 500">
 <defs>
  <linearGradient id="linearGradient2921" gradientUnits="userSpaceOnUse" gradientTransform="matrix(1.38058 0 0 1.4809-1462.8-1288.13)" y1="1046.49" x2="0" y2="1007.46">
   <stop style="stop-color:#fff"/>
   <stop offset="1" style="stop-color:#707070"/>
  </linearGradient>
  <linearGradient id="linearGradient3692" y1="5.05" x2="0" y2="994.53" gradientUnits="userSpaceOnUse">
   <stop style="stop-color:#bde9ff"/>
   <stop offset=".2" style="stop-color:#1c7dbd"/>
   <stop offset=".304" style="stop-color:#1e5ba1"/>
   <stop offset=".538" style="stop-color:#262e36"/>
   <stop offset=".734" style="stop-color:#186d99"/>
   <stop offset="1" style="stop-color:#0071bf"/>
  </linearGradient>
 </defs>
 <path d="m1138.9474 499.78946a489.47369 494.73682 0 1 1 -978.9474 0 489.47369 494.73682 0 1 1 978.9474 0z" transform="matrix(.49543 0 0 .49016-70.45 7.918)" style="fill:url(#linearGradient3692);stroke:#000;stroke-linecap:round;stroke-linejoin:round;stroke-width:10.146"/>
 <path d="m520.00002 474.52631a107.36842 105.26316 0 1 1 -214.73685 0 107.36842 105.26316 0 1 1 214.73685 0" transform="matrix(1.83946 0 0 1.87625-508.15-636.81)"/>
 <g style="fill-rule:evenodd">
  <path d="m243.74 230.17c-2.55 0-4.884.585-6.994 1.754-2.11 1.144-4.117 2.922-5.995 5.359v-6.089h-12.444v41.749h12.444v-20.558c0-3.805.741-6.776 2.225-8.915 1.484-2.164 3.535-3.215 6.131-3.215 1.067 0 2.027.233 2.861.731.834.473 1.466 1.127 1.953 1.997.371.647.633 1.653.772 3.02.162 1.368.227 3.848.227 7.453l.045.049v3.166c0 5.645 1.201 9.95 3.542 12.909 2.365 2.959 5.766 4.433 10.264 4.433 2.527 0 4.862-.561 6.948-1.705 2.109-1.169 4.071-2.97 5.949-5.407v6.04h12.489v-41.749h-12.489v20.606c0 3.805-.742 6.776-2.225 8.915-1.484 2.139-3.489 3.215-6.086 3.215-1.067 0-2.027-.258-2.861-.731-.811-.472-1.488-1.127-1.998-1.997-.394-.671-.655-1.748-.817-3.215-.162-1.492-.227-3.901-.227-7.258v-3.215c0-5.645-1.155-9.95-3.497-12.909-2.318-2.959-5.721-4.433-10.218-4.433m-178.5-12.922h22.22c6.607 0 11.673 1.579 15.197 4.737 3.547 3.133 5.32 7.61 5.321 13.429 0 5.844-1.774 10.345-5.321 13.503-3.524 3.133-8.589 4.7-15.197 4.7h-8.833v19.322h-13.388v-55.691m13.388 10.407v15.555h7.407c2.596 0 4.602-.671 6.02-2.01 1.414-1.368 2.121-3.295 2.121-5.782 0-2.487-.707-4.402-2.121-5.744-1.414-1.343-3.42-2.01-6.02-2.01h-7.407m75.79 42.23c-2.457 1.368-5.02 2.4-7.685 3.096-2.666.696-5.448 1.044-8.346 1.044-8.647 0-15.498-2.586-20.552-7.759-5.05-5.197-7.581-12.235-7.581-21.11 0-8.903 2.527-15.94 7.581-21.11 5.05-5.197 11.905-7.796 20.552-7.796 2.898 0 5.68.348 8.346 1.044 2.666.696 5.228 1.728 7.685 3.096v11.526c-2.481-1.815-4.926-3.146-7.337-3.991-2.411-.845-4.95-1.268-7.616-1.268-4.776 0-8.531 1.641-11.267 4.924-2.736 3.283-4.103 7.809-4.103 13.578 0 5.744 1.368 10.258 4.103 13.54 2.736 3.283 6.491 4.924 11.267 4.924 2.666 0 5.205-.423 7.616-1.268 2.411-.845 4.857-2.176 7.337-3.991v11.526m204.52-43.23c-4.08 0-7.245 1.616-9.494 4.849-2.249 3.233-3.373 7.784-3.373 13.652 0 5.844 1.124 10.382 3.373 13.615 2.249 3.233 5.413 4.849 9.494 4.849 4.103 0 7.279-1.616 9.528-4.849 2.249-3.233 3.373-7.771 3.373-13.615 0-5.869-1.124-10.42-3.373-13.652-2.249-3.233-5.425-4.849-9.528-4.849m0-10.407c8.346 0 14.884 2.561 19.613 7.684 4.729 5.123 7.094 12.198 7.094 21.22 0 9-2.365 16.06-7.094 21.19-4.729 5.123-11.267 7.684-19.613 7.684-8.323 0-14.86-2.561-19.613-7.684-4.729-5.123-7.094-12.185-7.094-21.19 0-9.03 2.365-16.1 7.094-21.22 4.753-5.123 11.29-7.684 19.613-7.684m66.67 2.76v11.787c-2.852-1.368-5.634-2.4-8.346-3.096-2.713-.696-5.274-1.044-7.685-1.044-3.199 0-5.564.473-7.094 1.417-1.53.945-2.295 2.412-2.295 4.402 0 1.492.51 2.661 1.53 3.506 1.043.821 2.921 1.529 5.633 2.126l5.703 1.231c5.773 1.243 9.876 3.133 12.31 5.67 2.434 2.537 3.651 6.142 3.651 10.817 0 6.142-1.704 10.718-5.112 13.727-3.385 2.984-8.566 4.476-15.544 4.476-3.292 0-6.596-.336-9.911-1.01-3.315-.671-6.63-1.666-9.946-2.984v-12.12c3.315 1.89 6.514 3.32 9.598 4.29 3.107.945 6.097 1.417 8.972 1.417 2.921 0 5.158-.522 6.712-1.567 1.553-1.044 2.33-2.536 2.33-4.476 0-1.741-.533-3.084-1.6-4.03-1.043-.945-3.141-1.79-6.294-2.537l-5.181-1.231c-5.193-1.194-8.995-3.096-11.406-5.707-2.388-2.611-3.582-6.13-3.582-10.556 0-5.545 1.669-9.81 5.01-12.794 3.338-2.984 8.137-4.476 14.397-4.476 2.852 0 5.784.236 8.798.709 3.01.448 6.132 1.132 9.354 2.052m-265.86-1.743h13.388v44.837h23.508v10.855h-36.896v-55.691m144.19 34.32l-14.05-20.404h13.18l7.963 12.384 8.07-12.384h13.18l-14.05 20.329 14.745 21.448h-13.18l-8.763-13.205-8.659 13.205h-13.18l14.744-21.374m-96.88-41.28c2.133 0 3.952.832 5.455 2.496 1.503 1.612 2.254 3.563 2.254 5.851 0 2.393-.752 4.395-2.254 6.01-1.455 1.612-3.273 2.418-5.455 2.418-1.988 0-3.758-.832-5.309-2.496-1.503-1.716-2.254-3.692-2.254-5.929 0-2.236.751-4.186 2.254-5.851 1.551-1.664 3.321-2.496 5.309-2.496m5.527 62.65h-11.345v-31.23h-8.01v-10.531h19.359v41.758"/>
  <path d="m246.72 234.03c-2.55 0-4.884.585-6.994 1.754-2.11 1.144-4.117 2.922-5.995 5.359v-6.089h-12.444v41.749h12.444v-20.558c0-3.805.742-6.776 2.225-8.915 1.484-2.164 3.535-3.215 6.131-3.215 1.067 0 2.027.233 2.861.731.834.473 1.466 1.127 1.953 1.997.371.647.633 1.653.772 3.02.162 1.368.227 3.848.227 7.453l.045.049v3.166c0 5.645 1.201 9.95 3.542 12.909 2.365 2.959 5.766 4.433 10.264 4.433 2.527 0 4.862-.561 6.948-1.705 2.11-1.169 4.071-2.97 5.949-5.407v6.04h12.489v-41.749h-12.489v20.606c0 3.805-.742 6.776-2.225 8.915-1.484 2.139-3.489 3.215-6.086 3.215-1.067 0-2.027-.258-2.861-.731-.811-.472-1.488-1.127-1.998-1.997-.394-.671-.655-1.748-.817-3.215-.162-1.492-.227-3.901-.227-7.258v-3.215c0-5.645-1.155-9.95-3.497-12.909-2.318-2.959-5.721-4.433-10.218-4.433m-178.5-12.922h22.22c6.607 0 11.673 1.579 15.197 4.737 3.547 3.133 5.32 7.61 5.321 13.429 0 5.844-1.774 10.345-5.321 13.503-3.524 3.133-8.589 4.7-15.197 4.7h-8.833v19.322h-13.388v-55.691m13.388 10.407v15.555h7.407c2.597 0 4.602-.671 6.02-2.01 1.414-1.368 2.121-3.295 2.121-5.782 0-2.487-.707-4.402-2.121-5.744-1.414-1.343-3.42-2.01-6.02-2.01h-7.407m75.79 42.23c-2.457 1.368-5.02 2.4-7.685 3.096-2.666.696-5.448 1.044-8.346 1.044-8.647 0-15.498-2.586-20.552-7.759-5.05-5.197-7.581-12.235-7.581-21.11 0-8.903 2.527-15.94 7.581-21.11 5.05-5.197 11.905-7.796 20.552-7.796 2.898 0 5.68.348 8.346 1.044 2.666.696 5.228 1.728 7.685 3.096v11.526c-2.481-1.815-4.926-3.146-7.337-3.991-2.411-.845-4.95-1.268-7.616-1.268-4.776 0-8.531 1.641-11.267 4.924-2.736 3.283-4.103 7.809-4.103 13.578 0 5.744 1.368 10.258 4.103 13.54 2.736 3.283 6.491 4.924 11.267 4.924 2.666 0 5.205-.423 7.616-1.268 2.411-.846 4.857-2.176 7.337-3.991v11.526m204.52-43.23c-4.08 0-7.245 1.616-9.494 4.849-2.249 3.233-3.373 7.784-3.373 13.652 0 5.844 1.124 10.382 3.373 13.615 2.249 3.233 5.413 4.849 9.494 4.849 4.103 0 7.279-1.616 9.528-4.849 2.249-3.233 3.373-7.771 3.373-13.615 0-5.869-1.124-10.42-3.373-13.652-2.249-3.233-5.425-4.849-9.528-4.849m0-10.407c8.346 0 14.884 2.561 19.613 7.684 4.729 5.123 7.094 12.198 7.094 21.22 0 9-2.365 16.06-7.094 21.19-4.729 5.123-11.267 7.684-19.613 7.684-8.323 0-14.86-2.561-19.613-7.684-4.729-5.123-7.094-12.185-7.094-21.19 0-9.03 2.365-16.1 7.094-21.22 4.752-5.123 11.29-7.684 19.613-7.684m66.67 2.76v11.787c-2.852-1.368-5.634-2.4-8.346-3.096-2.712-.696-5.274-1.044-7.685-1.044-3.199 0-5.564.473-7.094 1.417-1.53.945-2.295 2.412-2.295 4.402 0 1.492.51 2.661 1.53 3.506 1.043.821 2.921 1.529 5.634 2.126l5.703 1.231c5.773 1.243 9.876 3.133 12.31 5.67 2.434 2.537 3.651 6.142 3.651 10.817 0 6.142-1.704 10.718-5.112 13.727-3.385 2.984-8.566 4.476-15.544 4.476-3.292 0-6.596-.336-9.911-1.01-3.315-.671-6.63-1.666-9.946-2.984v-12.12c3.315 1.89 6.514 3.32 9.598 4.29 3.106.945 6.097 1.417 8.972 1.417 2.921 0 5.158-.522 6.712-1.567 1.553-1.044 2.33-2.536 2.33-4.476 0-1.741-.533-3.084-1.6-4.03-1.043-.945-3.141-1.79-6.294-2.537l-5.181-1.231c-5.193-1.194-8.995-3.096-11.406-5.707-2.388-2.611-3.582-6.13-3.582-10.556 0-5.545 1.669-9.81 5.01-12.794 3.338-2.984 8.137-4.476 14.397-4.476 2.852 0 5.784.236 8.798.709 3.01.448 6.132 1.132 9.354 2.052m-265.86-1.743h13.388v44.836h23.508v10.855h-36.896v-55.691m144.19 34.32l-14.05-20.404h13.18l7.963 12.384 8.07-12.384h13.18l-14.05 20.329 14.745 21.448h-13.18l-8.763-13.205-8.659 13.205h-13.18l14.744-21.374m-96.88-41.28c2.133 0 3.951.832 5.455 2.496 1.503 1.612 2.254 3.563 2.254 5.851 0 2.393-.752 4.395-2.254 6.01-1.455 1.612-3.273 2.418-5.455 2.418-1.988 0-3.758-.832-5.309-2.496-1.503-1.716-2.254-3.692-2.254-5.929 0-2.236.751-4.186 2.254-5.851 1.551-1.664 3.321-2.496 5.309-2.496m5.527 62.65h-11.345v-31.23h-8.01v-10.531h19.359v41.758" style="fill:url(#linearGradient2921)"/>
 </g>
</svg>
