<?xml version="1.0" encoding="utf-8"?>
<!-- Generator: Adobe Illustrator 18.0.0, SVG Export Plug-In . SVG Version: 6.00 Build 0)  -->
<!DOCTYPE svg PUBLIC "-//W3C//DTD SVG 1.1//EN" "http://www.w3.org/Graphics/SVG/1.1/DTD/svg11.dtd">
<svg version="1.1" id="Layer_1" xmlns="http://www.w3.org/2000/svg" xmlns:xlink="http://www.w3.org/1999/xlink" x="0px" y="0px"
	 width="400.3px" height="401.2px" viewBox="0 0 400.3 401.2" enable-background="new 0 0 400.3 401.2" xml:space="preserve">
<g id="built-in-terminal">
	<path fill="#34495E" d="M390,401.2H10c-5.5,0-10-4.5-10-10v-380c0-5.5,4.5-10,10-10h380c5.5,0,10,4.5,10,10v380
		C400,396.8,395.5,401.2,390,401.2z"/>
	<rect x="18" y="115.7" fill="#ECF0F1" width="363.4" height="257.2"/>
	<g>
		<path fill="#7F8C8D" d="M76.1,250.6l81.8-50.3v14.5L88.9,256v0.4l68.9,41.3v14.5l-81.8-50.1V250.6z"/>
		<path fill="#7F8C8D" d="M169.3,320.7L218.4,168h12l-49.3,152.7H169.3z"/>
		<path fill="#7F8C8D" d="M323.3,262.4l-81.8,49.9v-14.5l69.4-41.3V256l-69.4-41.3v-14.5l81.8,50.1V262.4z"/>
	</g>
	<g>
		<circle fill="#FFFFFF" cx="37.6" cy="39" r="17.4"/>
	</g>
	<g>
		<circle fill="#FFFFFF" cx="88.7" cy="39" r="17.4"/>
	</g>
	<rect x="0.3" fill="none" width="400" height="400"/>
	<g>
		<path fill="#445500" d="M360.2,65.9c7.6-12.4,18.3,8,21.8,9.6c-3.4-0.3-17.7,18.3-24,6.5C357.9,81.6,360,65.8,360.2,65.9z"/>
		<path fill="#445500" d="M314.4,64.3c-23.3-7.3-14.3,30.3-17,36.1c3.9-4.1,42.5,3.6,37.6-18.2C334.6,81.6,314.5,64,314.4,64.3z"/>
		<path fill="#FFCC00" d="M356.2,51.2c3-5.1,6.5-5.5,10.1-5.2c5.1,0.3,6.6,6.6,11.3,8.7c-4.9,2.3-5.4,7.1-9.7,8.6
			c-5,1.4-9.2,0.1-11.8-3.8L356.2,51.2z"/>
		<path fill="#FFCC00" d="M319.4,51.7c-3-5.1-6.5-5.5-10.1-5.2c-5.1,0.3-6.6,6.6-11.3,8.7c4.9,2.3,5.4,7.1,9.7,8.6
			c5,1.4,9.2,0.1,11.8-3.8L319.4,51.7z"/>
		<path fill="#FFCC00" d="M333.8,36.8c-5.1-3-5.5-6.5-5.2-10.1c0.3-5.1,6.6-6.6,8.7-11.3c2.3,4.9,7.1,5.4,8.6,9.7
			c1.4,5,0.1,9.2-3.8,11.8L333.8,36.8z"/>
		<path fill="#FFCC00" d="M334.4,73.6c-5.1,3-5.5,6.5-5.2,10.1c0.3,5.1,6.6,6.6,8.7,11.3c2.3-4.9,7.1-5.4,8.6-9.7
			c1.4-5,0.1-9.2-3.8-11.8L334.4,73.6z"/>
		<path fill="#FFCC00" d="M350.8,41.9c-0.1-6,2.7-8.1,5.9-9.7c4.5-2.4,9,2.2,14.2,1.5c-3,4.5-0.9,8.9-3.7,12.4
			c-3.6,3.8-7.8,4.9-12,2.9L350.8,41.9z"/>
		<path fill="#FFCC00" d="M319.6,61.6c-5.3-2.8-8.4-1.3-11.3,0.9c-4.2,2.9-2.1,9.1-5.1,13.3c5.4-0.6,8.3,3.2,12.7,2.3
			c5-1.4,7.9-4.7,8.1-9.4L319.6,61.6z"/>
		<path fill="#FFCC00" d="M343,37.1c-3.1-5.1-1.8-8.3,0.2-11.4c2.7-4.3,8.9-2.7,13-5.9c-0.3,5.4,3.7,8.1,3,12.6
			c-1.1,5.1-4.2,8.1-8.9,8.6L343,37.1z"/>
		<path fill="#FFCC00" d="M326.1,69.8c-6,0.3-7.9,3.1-9.3,6.5c-2.1,4.6,2.8,8.9,2.3,14.1c4.3-3.3,8.8-1.5,12.1-4.5
			c3.6-3.8,4.4-8,2.2-12.2L326.1,69.8z"/>
		<path fill="#FFCC00" d="M355.2,62.4c5.4-2.5,8.5-0.8,11.3,1.5c4,3.2,1.6,9.2,4.4,13.6c-5.4-0.9-8.5,2.7-12.8,1.6
			c-4.9-1.7-7.6-5.1-7.6-9.8L355.2,62.4z"/>
		<path fill="#FFCC00" d="M324.6,41.9c0.4-6-2.2-8.2-5.4-10c-4.4-2.6-9.2,1.7-14.2,0.7c2.8,4.7,0.5,8.9,3.1,12.6
			c3.3,4,7.5,5.3,11.9,3.6L324.6,41.9z"/>
		<path fill="#FFCC00" d="M349.5,69.9c5.9,0.5,7.8,3.4,9.1,6.8c1.9,4.7-3.1,8.8-2.8,14c-4.2-3.4-8.8-1.8-12-4.9
			c-3.5-3.9-4.1-8.2-1.8-12.3L349.5,69.9z"/>
		<path fill="#FFCC00" d="M332.7,37.1c3.3-5,2.1-8.2,0.2-11.4c-2.5-4.4-8.8-3-12.8-6.3c0.1,5.4-4,8-3.5,12.5c1,5.1,3.9,8.3,8.6,8.9
			L332.7,37.1z"/>
		<path fill="#2B1100" d="M358.8,55.1c0,11.7-9.5,21.1-21.1,21.1c-11.7,0-21.1-9.5-21.1-21.1v0c0-11.7,9.5-21.1,21.1-21.1
			C349.3,34,358.8,43.5,358.8,55.1L358.8,55.1z"/>
	</g>
</g>
</svg>
