<?xml version="1.0" encoding="utf-8"?>
<!-- Generator: Adobe Illustrator 18.0.0, SVG Export Plug-In . SVG Version: 6.00 Build 0)  -->
<!DOCTYPE svg PUBLIC "-//W3C//DTD SVG 1.1//EN" "http://www.w3.org/Graphics/SVG/1.1/DTD/svg11.dtd">
<svg version="1.1" id="Layer_1" xmlns="http://www.w3.org/2000/svg" xmlns:xlink="http://www.w3.org/1999/xlink" x="0px" y="0px"
	 width="400px" height="400px" viewBox="0 0 400 400" enable-background="new 0 0 400 400" xml:space="preserve">
<g id="customizable_1_">
	<path fill="#445500" d="M296.3,237.8c35.8-58.3,86.1,37.6,102.4,45c-15.8-1.6-83.3,85.9-113,30.7
		C285.6,311.5,295.5,237.3,296.3,237.8z"/>
	<path fill="#445500" d="M81.1,230.3C-28.4,196.1,13.7,372.7,1.2,400c18.2-19.5,200,16.8,176.7-85.8
		C175.9,311.5,81.6,228.7,81.1,230.3z"/>
	<path fill="#E74C3C" d="M277.7,168.6c14.3-24.1,30.5-25.9,47.6-24.4c23.9,1.6,30.8,31.2,53.2,40.9c-23.2,10.7-25.6,33.3-45.4,40.4
		c-23.7,6.6-43.2,0.5-55.5-17.8L277.7,168.6z"/>
	<path fill="#3498DB" d="M104.5,171.2C90.3,147.1,74,145.3,57,146.8C33,148.4,26.2,178,3.8,187.7c23.2,10.7,25.6,33.3,45.4,40.4
		c23.7,6.6,43.2,0.5,55.5-17.8L104.5,171.2z"/>
	<path fill="#1ABC9C" d="M175,273.9c-24.1,14.3-25.9,30.5-24.4,47.6c1.6,23.9,31.2,30.8,40.9,53.2c10.7-23.2,33.3-25.6,40.4-45.4
		c6.6-23.7,0.5-43.2-17.8-55.5L175,273.9z"/>
	<path fill="#E74C3C" d="M252.1,124.7c-0.4-28,12.5-38,27.8-45.6c21.2-11.2,42.5,10.5,66.7,7.1c-14.2,21.2-4.5,41.8-17.6,58.2
		c-16.8,18-36.5,23-56.6,13.8L252.1,124.7z"/>
	<path fill="#3498DB" d="M105.8,217.4c-24.8-13.1-39.5-6.1-53.3,4.1c-19.6,13.8-10,42.7-24,62.6c25.4-3,39.2,15,59.8,10.8
		c23.7-6.7,37.1-22.1,38-44.2L105.8,217.4z"/>
	<path fill="#1ABC9C" d="M136.1,256c-28,1.2-37.2,14.7-43.9,30.5c-9.9,21.9,13,41.8,11,66.2c20.4-15.5,41.4-6.9,57.1-21
		c17-17.8,20.8-37.8,10.5-57.3L136.1,256z"/>
	<path fill="#E74C3C" d="M273,221.1c25.5-11.7,39.8-4,53,7c18.8,14.9,7.6,43.1,20.5,63.9c-25.2-4.4-40,12.8-60.3,7.5
		c-23.3-8-35.8-24.1-35.5-46.2L273,221.1z"/>
	<path fill="#3498DB" d="M129,124.8c2-28-10.4-38.6-25.3-47.1c-20.6-12.3-43,8.1-67,3.4c13,22,2.1,42,14.4,59.1
		c15.7,18.9,35.2,25,55.8,16.9L129,124.8z"/>
	<path fill="#1ABC9C" d="M246,256.5c28,2.2,36.7,16,42.8,32c9.1,22.2-14.4,41.4-13.3,65.7c-19.8-16.2-41.2-8.3-56.3-23
		c-16.4-18.4-19.5-38.5-8.5-57.7L246,256.5z"/>
	<g>
		<path fill="#FFCC00" d="M172.4,100.7c-24.1-14.3-25.9-30.5-24.4-47.6c1.6-23.9,31.2-30.8,40.9-53.2c10.7,23.2,33.3,25.6,40.4,45.4
			c6.6,23.7,0.5,43.2-17.8,55.5L172.4,100.7z"/>
		<path fill="#FFCC00" d="M215.4,102.1c-14.6-24-8.4-39.1,0.9-53.4c12.7-20.4,42-12.5,61.1-27.6c-1.5,25.5,17.3,38.3,14.3,59.1
			c-5.3,24-19.9,38.3-41.9,40.6L215.4,102.1z"/>
		<path fill="#FFCC00" d="M167.4,102.2c15.4-23.5,9.8-38.8,0.9-53.4c-11.9-20.8-41.5-13.9-60.1-29.7c0.6,25.6-18.6,37.7-16.3,58.6
			c4.5,24.2,18.5,39,40.4,42L167.4,102.2z"/>
	</g>
	<path fill="#2B1100" d="M290,187.1c0,54.8-44.4,99.3-99.3,99.3S91.4,242,91.4,187.1v0c0-54.8,44.4-99.3,99.3-99.3
		C245.5,87.8,289.9,132.2,290,187.1L290,187.1z"/>
	<rect fill="none" width="400" height="400"/>
</g>
</svg>
