<?xml version="1.0" encoding="utf-8"?>
<!-- Generator: Adobe Illustrator 18.0.0, SVG Export Plug-In . SVG Version: 6.00 Build 0)  -->
<!DOCTYPE svg PUBLIC "-//W3C//DTD SVG 1.1//EN" "http://www.w3.org/Graphics/SVG/1.1/DTD/svg11.dtd">
<svg version="1.1" id="Layer_1" xmlns="http://www.w3.org/2000/svg" xmlns:xlink="http://www.w3.org/1999/xlink" x="0px" y="0px"
	 width="400px" height="400px" viewBox="0 0 400 400" enable-background="new 0 0 400 400" xml:space="preserve">
<g id="emblems">
	<path fill="#2C3E50" stroke="#000000" stroke-width="0" stroke-linecap="square" stroke-miterlimit="2" d="M200,400
		C29.8,332.4-2,205.2,0.1,77.7C69.7,62.4,133.1,0,200,0c66.4-0.8,130.3,62.3,199.9,77.7C402,205.2,370.2,332.4,200,400z"/>
	<path fill="#ECF0F1" stroke="#000000" stroke-width="0" stroke-linecap="square" stroke-miterlimit="2" d="M200,383.8
		C127.8,354,78.3,311.7,48.8,254.5C25.9,210,15.1,157.3,15,89.4c28.3-8.2,55.2-22.6,81.2-36.7C132.3,33.3,166.3,15,200,15
		c0,0,0.9,0,1.2,0c33.1,0,66.9,18.3,102.7,37.6c26,14.1,52.9,28.6,81.1,36.7c0,67.9-10.8,120.6-33.8,165.1
		C321.8,311.7,272.3,354,200,383.8z"/>
	<path fill="#2980B9" stroke="#000000" stroke-width="0" stroke-linecap="square" stroke-miterlimit="2" d="M303.9,52.6
		C268.1,33.3,234.4,15,201.3,15c-0.4,0-1.2,0-1.2,0c0,0,0,0,0,0v368.8c0,0,0,0,0,0c72.2-29.8,121.7-72.1,151.2-129.4
		C374.2,210,385,157.3,385,89.3C356.8,81.2,330,66.7,303.9,52.6z"/>
	<rect x="0" fill="none" width="400" height="400"/>
	<g>
		<path fill="#445500" d="M261,196.5c20.3-33,48.8,21.3,58,25.5c-9-0.9-47.2,48.7-64,17.4C254.9,238.2,260.5,196.2,261,196.5z"/>
		<path fill="#445500" d="M139.1,192.2c-62.1-19.4-38.2,80.7-45.3,96.2c10.3-11,113.3,9.5,100.1-48.6
			C192.8,238.3,139.4,191.3,139.1,192.2z"/>
		<path fill="#FFCC00" d="M250.4,157.3c8.1-13.7,17.3-14.7,26.9-13.8c13.6,0.9,17.4,17.7,30.1,23.2c-13.2,6.1-14.5,18.9-25.7,22.9
			c-13.4,3.8-24.5,0.3-31.4-10.1L250.4,157.3z"/>
		<path fill="#FFCC00" d="M152.3,158.8c-8.1-13.7-17.3-14.7-26.9-13.8c-13.6,0.9-17.4,17.7-30.1,23.2c13.2,6.1,14.5,18.9,25.7,22.9
			c13.4,3.8,24.5,0.3,31.4-10.1L152.3,158.8z"/>
		<path fill="#FFCC00" d="M190.8,118.8c-13.7-8.1-14.7-17.3-13.8-26.9c0.9-13.6,17.7-17.4,23.2-30.1c6.1,13.2,18.9,14.5,22.9,25.7
			c3.8,13.4,0.3,24.5-10.1,31.4L190.8,118.8z"/>
		<path fill="#FFCC00" d="M192.3,216.9c-13.7,8.1-14.7,17.3-13.8,26.9c0.9,13.6,17.7,17.4,23.2,30.1c6.1-13.2,18.9-14.5,22.9-25.7
			c3.8-13.4,0.3-24.5-10.1-31.4L192.3,216.9z"/>
		<path fill="#FFCC00" d="M235.9,132.4c-0.2-15.9,7.1-21.5,15.8-25.8c12-6.3,24.1,5.9,37.8,4c-8.1,12-2.5,23.7-10,33
			c-9.5,10.2-20.7,13-32.1,7.8L235.9,132.4z"/>
		<path fill="#FFCC00" d="M153.1,184.9c-14-7.4-22.4-3.5-30.2,2.3c-11.1,7.8-5.7,24.2-13.6,35.5c14.4-1.7,22.2,8.5,33.9,6.1
			c13.4-3.8,21-12.5,21.6-25L153.1,184.9z"/>
		<path fill="#FFCC00" d="M215.1,119.6c-8.2-13.6-4.8-22.2,0.5-30.3c7.2-11.5,23.8-7.1,34.6-15.6c-0.9,14.5,9.8,21.7,8.1,33.5
			c-3,13.6-11.3,21.7-23.7,23L215.1,119.6z"/>
		<path fill="#FFCC00" d="M170.2,206.8c-15.9,0.7-21.1,8.3-24.9,17.3c-5.6,12.4,7.3,23.7,6.2,37.5c11.5-8.8,23.5-3.9,32.3-11.9
			c9.6-10.1,11.8-21.4,5.9-32.5L170.2,206.8z"/>
		<path fill="#FFCC00" d="M247.8,187c14.4-6.7,22.6-2.2,30,4c10.7,8.4,4.3,24.4,11.6,36.2c-14.3-2.5-22.7,7.3-34.2,4.2
			c-13.2-4.5-20.3-13.7-20.1-26.2L247.8,187z"/>
		<path fill="#FFCC00" d="M166.2,132.5c1.1-15.9-5.9-21.9-14.3-26.7c-11.7-7-24.4,4.6-38,1.9c7.4,12.5,1.2,23.8,8.1,33.5
			c8.9,10.7,19.9,14.1,31.6,9.6L166.2,132.5z"/>
		<path fill="#FFCC00" d="M232.5,207.1c15.8,1.2,20.8,9.1,24.2,18.1c5.2,12.6-8.2,23.4-7.6,37.2c-11.2-9.2-23.3-4.7-31.9-13
			c-9.3-10.4-11-21.8-4.8-32.7L232.5,207.1z"/>
		<path fill="#FFCC00" d="M188,119.7c8.7-13.3,5.6-22,0.5-30.3c-6.8-11.8-23.5-7.9-34.1-16.8c0.4,14.5-10.6,21.3-9.2,33.2
			c2.5,13.7,10.5,22.1,22.9,23.8L188,119.7z"/>
		<path fill="#2B1100" d="M257.4,167.8c0,31.1-25.2,56.3-56.2,56.3c-31.1,0-56.3-25.2-56.3-56.2v0c0-31.1,25.2-56.3,56.2-56.3
			C232.2,111.5,257.4,136.7,257.4,167.8L257.4,167.8z"/>
	</g>
</g>
</svg>
