<?xml version="1.0" encoding="utf-8"?>
<!-- Generator: Adobe Illustrator 18.0.0, SVG Export Plug-In . SVG Version: 6.00 Build 0)  -->
<!DOCTYPE svg PUBLIC "-//W3C//DTD SVG 1.1//EN" "http://www.w3.org/Graphics/SVG/1.1/DTD/svg11.dtd">
<svg version="1.1" id="Layer_1" xmlns="http://www.w3.org/2000/svg" xmlns:xlink="http://www.w3.org/1999/xlink" x="0px" y="0px"
	 width="400px" height="400px" viewBox="0 0 400 400" enable-background="new 0 0 400 400" xml:space="preserve">
<g id="mutlithreading">
	<g>
		<path fill="#FFFFFF" d="M379.9,391.1H20.1c-6.9,0-12.5-5.6-12.5-12.5V21.3c0-6.9,5.6-12.5,12.5-12.5h359.8
			c6.9,0,12.5,5.6,12.5,12.5v357.4C392.4,385.6,386.8,391.1,379.9,391.1z"/>
		<path fill="#34495E" d="M379.9,398.8H20.1C9,398.8,0,389.7,0,378.7V21.3C0,10.3,9,1.2,20.1,1.2h359.8c11.1,0,20.1,9,20.1,20.1
			v357.4C400,389.7,391,398.8,379.9,398.8z M20.1,16.5c-2.7,0-4.8,2.2-4.8,4.8v357.4c0,2.7,2.2,4.8,4.8,4.8h359.8
			c2.7,0,4.8-2.2,4.8-4.8V21.3c0-2.7-2.2-4.8-4.8-4.8H20.1z"/>
	</g>
	<g>
		<path fill="#34495E" d="M387.4,69.1H12.6c-2.7,0-4.9-2.2-4.9-4.9V13.8c0-2.7,2.2-4.9,4.9-4.9h374.9c2.7,0,4.9,2.2,4.9,4.9v50.3
			C392.4,66.8,390.2,69.1,387.4,69.1z"/>
		<path fill="#34495E" d="M387.4,76.7H12.6C5.6,76.7,0,71,0,64.1V13.8C0,6.9,5.6,1.2,12.6,1.2h374.9c6.9,0,12.6,5.6,12.6,12.6v50.3
			C400,71,394.4,76.7,387.4,76.7z M15.3,61.4h369.5V16.5H15.3V61.4z"/>
	</g>
	<g>
		<circle fill="#FFFFFF" cx="37.3" cy="39" r="17.4"/>
	</g>
	<g>
		<circle fill="#FFFFFF" cx="88.4" cy="39" r="17.4"/>
	</g>
	<g>
		<path fill="#FFFFFF" d="M377.2,46.8H133.9c-4.4,0-7.9-3.5-7.9-7.9v0c0-4.4,3.5-7.9,7.9-7.9h243.3c4.4,0,7.9,3.5,7.9,7.9v0
			C385.1,43.3,381.6,46.8,377.2,46.8z"/>
	</g>
	<g>
		<g>
			<line fill="none" stroke="#7F8C8D" stroke-width="5" stroke-miterlimit="10" x1="200.5" y1="134" x2="200.5" y2="139"/>
			
				<line fill="none" stroke="#7F8C8D" stroke-width="5" stroke-miterlimit="10" stroke-dasharray="10,10" x1="200.5" y1="149" x2="200.5" y2="319"/>
			<line fill="none" stroke="#7F8C8D" stroke-width="5" stroke-miterlimit="10" x1="200.5" y1="324" x2="200.5" y2="329"/>
		</g>
	</g>
	<g>
		<g>
			<line fill="none" stroke="#7F8C8D" stroke-width="5" stroke-miterlimit="10" x1="331.5" y1="329" x2="331.5" y2="324"/>
			
				<line fill="none" stroke="#7F8C8D" stroke-width="5" stroke-miterlimit="10" stroke-dasharray="10,10" x1="331.5" y1="314" x2="331.5" y2="239"/>
			<polyline fill="none" stroke="#7F8C8D" stroke-width="5" stroke-miterlimit="10" points="331.5,235 331.5,229.5 332.3,229.5 
				327,229.5 			"/>
			
				<line fill="none" stroke="#7F8C8D" stroke-width="5" stroke-miterlimit="10" stroke-dasharray="10,10" x1="317" y1="229.5" x2="78" y2="229.5"/>
			<polyline fill="none" stroke="#7F8C8D" stroke-width="5" stroke-miterlimit="10" points="73,229.5 68.7,229.5 68.5,229.5 
				68.5,235 			"/>
			
				<line fill="none" stroke="#7F8C8D" stroke-width="5" stroke-miterlimit="10" stroke-dasharray="10,10" x1="68.5" y1="244" x2="68.5" y2="319"/>
			<line fill="none" stroke="#7F8C8D" stroke-width="5" stroke-miterlimit="10" x1="68.5" y1="324" x2="68.5" y2="329"/>
		</g>
	</g>
	<rect x="0" fill="none" width="400" height="400"/>
	<g>
		<path fill="#445500" d="M220.5,140.3c7.6-12.4,18.3,8,21.8,9.6c-3.4-0.3-17.7,18.3-24,6.5C218.2,155.9,220.3,140.2,220.5,140.3z"
			/>
		<path fill="#445500" d="M174.7,138.7c-23.3-7.3-14.3,30.3-17,36.1c3.9-4.1,42.5,3.6,37.6-18.2C194.9,156,174.8,138.3,174.7,138.7z
			"/>
		<path fill="#FFCC00" d="M216.5,125.5c3-5.1,6.5-5.5,10.1-5.2c5.1,0.3,6.6,6.6,11.3,8.7c-4.9,2.3-5.4,7.1-9.7,8.6
			c-5,1.4-9.2,0.1-11.8-3.8L216.5,125.5z"/>
		<path fill="#FFCC00" d="M179.7,126.1c-3-5.1-6.5-5.5-10.1-5.2c-5.1,0.3-6.6,6.6-11.3,8.7c4.9,2.3,5.4,7.1,9.7,8.6
			c5,1.4,9.2,0.1,11.8-3.8L179.7,126.1z"/>
		<path fill="#FFCC00" d="M194.1,111.1c-5.1-3-5.5-6.5-5.2-10.1c0.3-5.1,6.6-6.6,8.7-11.3c2.3,4.9,7.1,5.4,8.6,9.7
			c1.4,5,0.1,9.2-3.8,11.8L194.1,111.1z"/>
		<path fill="#FFCC00" d="M194.7,147.9c-5.1,3-5.5,6.5-5.2,10.1c0.3,5.1,6.6,6.6,8.7,11.3c2.3-4.9,7.1-5.4,8.6-9.7
			c1.4-5,0.1-9.2-3.8-11.8L194.7,147.9z"/>
		<path fill="#FFCC00" d="M211.1,116.2c-0.1-6,2.7-8.1,5.9-9.7c4.5-2.4,9,2.2,14.2,1.5c-3,4.5-0.9,8.9-3.7,12.4
			c-3.6,3.8-7.8,4.9-12,2.9L211.1,116.2z"/>
		<path fill="#FFCC00" d="M180,135.9c-5.3-2.8-8.4-1.3-11.3,0.9c-4.2,2.9-2.1,9.1-5.1,13.3c5.4-0.6,8.3,3.2,12.7,2.3
			c5-1.4,7.9-4.7,8.1-9.4L180,135.9z"/>
		<path fill="#FFCC00" d="M203.3,111.4c-3.1-5.1-1.8-8.3,0.2-11.4c2.7-4.3,8.9-2.7,13-5.9c-0.3,5.4,3.7,8.1,3,12.6
			c-1.1,5.1-4.2,8.1-8.9,8.6L203.3,111.4z"/>
		<path fill="#FFCC00" d="M186.4,144.1c-6,0.3-7.9,3.1-9.3,6.5c-2.1,4.6,2.8,8.9,2.3,14.1c4.3-3.3,8.8-1.5,12.1-4.5
			c3.6-3.8,4.4-8,2.2-12.2L186.4,144.1z"/>
		<path fill="#FFCC00" d="M215.5,136.7c5.4-2.5,8.5-0.8,11.3,1.5c4,3.2,1.6,9.2,4.4,13.6c-5.4-0.9-8.5,2.7-12.8,1.6
			c-4.9-1.7-7.6-5.1-7.6-9.8L215.5,136.7z"/>
		<path fill="#FFCC00" d="M184.9,116.2c0.4-6-2.2-8.2-5.4-10c-4.4-2.6-9.2,1.7-14.2,0.7c2.8,4.7,0.5,8.9,3.1,12.6
			c3.3,4,7.5,5.3,11.9,3.6L184.9,116.2z"/>
		<path fill="#FFCC00" d="M209.8,144.2c5.9,0.5,7.8,3.4,9.1,6.8c1.9,4.7-3.1,8.8-2.8,14c-4.2-3.4-8.8-1.8-12-4.9
			c-3.5-3.9-4.1-8.2-1.8-12.3L209.8,144.2z"/>
		<path fill="#FFCC00" d="M193.1,111.4c3.3-5,2.1-8.2,0.2-11.4c-2.5-4.4-8.8-3-12.8-6.3c0.1,5.4-4,8-3.5,12.5c1,5.1,3.9,8.3,8.6,8.9
			L193.1,111.4z"/>
		<path fill="#2B1100" d="M219.1,129.5c0,11.7-9.5,21.1-21.1,21.1c-11.7,0-21.1-9.5-21.1-21.1v0c0-11.7,9.5-21.1,21.1-21.1
			C209.7,108.4,219.1,117.8,219.1,129.5L219.1,129.5z"/>
	</g>
	<g>
		<path fill="#445500" d="M220.5,328.1c7.6-12.4,18.3,8,21.8,9.6c-3.4-0.3-17.7,18.3-24,6.5C218.2,343.8,220.3,328,220.5,328.1z"/>
		<path fill="#445500" d="M174.7,326.5c-23.3-7.3-14.3,30.3-17,36.1c3.9-4.1,42.5,3.6,37.6-18.2
			C194.9,343.8,174.8,326.1,174.7,326.5z"/>
		<path fill="#FFCC00" d="M216.5,313.4c3-5.1,6.5-5.5,10.1-5.2c5.1,0.3,6.6,6.6,11.3,8.7c-4.9,2.3-5.4,7.1-9.7,8.6
			c-5,1.4-9.2,0.1-11.8-3.8L216.5,313.4z"/>
		<path fill="#FFCC00" d="M179.7,313.9c-3-5.1-6.5-5.5-10.1-5.2c-5.1,0.3-6.6,6.6-11.3,8.7c4.9,2.3,5.4,7.1,9.7,8.6
			c5,1.4,9.2,0.1,11.8-3.8L179.7,313.9z"/>
		<path fill="#FFCC00" d="M194.1,298.9c-5.1-3-5.5-6.5-5.2-10.1c0.3-5.1,6.6-6.6,8.7-11.3c2.3,4.9,7.1,5.4,8.6,9.7
			c1.4,5,0.1,9.2-3.8,11.8L194.1,298.9z"/>
		<path fill="#FFCC00" d="M194.7,335.8c-5.1,3-5.5,6.5-5.2,10.1c0.3,5.1,6.6,6.6,8.7,11.3c2.3-4.9,7.1-5.4,8.6-9.7
			c1.4-5,0.1-9.2-3.8-11.8L194.7,335.8z"/>
		<path fill="#FFCC00" d="M211.1,304c-0.1-6,2.7-8.1,5.9-9.7c4.5-2.4,9,2.2,14.2,1.5c-3,4.5-0.9,8.9-3.7,12.4
			c-3.6,3.8-7.8,4.9-12,2.9L211.1,304z"/>
		<path fill="#FFCC00" d="M180,323.7c-5.3-2.8-8.4-1.3-11.3,0.9c-4.2,2.9-2.1,9.1-5.1,13.3c5.4-0.6,8.3,3.2,12.7,2.3
			c5-1.4,7.9-4.7,8.1-9.4L180,323.7z"/>
		<path fill="#FFCC00" d="M203.3,299.2c-3.1-5.1-1.8-8.3,0.2-11.4c2.7-4.3,8.9-2.7,13-5.9c-0.3,5.4,3.7,8.1,3,12.6
			c-1.1,5.1-4.2,8.1-8.9,8.6L203.3,299.2z"/>
		<path fill="#FFCC00" d="M186.4,332c-6,0.3-7.9,3.1-9.3,6.5c-2.1,4.6,2.8,8.9,2.3,14.1c4.3-3.3,8.8-1.5,12.1-4.5
			c3.6-3.8,4.4-8,2.2-12.2L186.4,332z"/>
		<path fill="#FFCC00" d="M215.5,324.5c5.4-2.5,8.5-0.8,11.3,1.5c4,3.2,1.6,9.2,4.4,13.6c-5.4-0.9-8.5,2.7-12.8,1.6
			c-4.9-1.7-7.6-5.1-7.6-9.8L215.5,324.5z"/>
		<path fill="#FFCC00" d="M184.9,304.1c0.4-6-2.2-8.2-5.4-10c-4.4-2.6-9.2,1.7-14.2,0.7c2.8,4.7,0.5,8.9,3.1,12.6
			c3.3,4,7.5,5.3,11.9,3.6L184.9,304.1z"/>
		<path fill="#FFCC00" d="M209.8,332.1c5.9,0.5,7.8,3.4,9.1,6.8c1.9,4.7-3.1,8.8-2.8,14c-4.2-3.4-8.8-1.8-12-4.9
			c-3.5-3.9-4.1-8.2-1.8-12.3L209.8,332.1z"/>
		<path fill="#FFCC00" d="M193.1,299.2c3.3-5,2.1-8.2,0.2-11.4c-2.5-4.4-8.8-3-12.8-6.3c0.1,5.4-4,8-3.5,12.5c1,5.1,3.9,8.3,8.6,8.9
			L193.1,299.2z"/>
		<path fill="#2B1100" d="M219.1,317.3c0,11.7-9.5,21.1-21.1,21.1s-21.1-9.5-21.1-21.1v0c0-11.7,9.5-21.1,21.1-21.1
			C209.7,296.2,219.1,305.6,219.1,317.3L219.1,317.3z"/>
	</g>
	<g>
		<path fill="#445500" d="M354.5,328.1c7.6-12.4,18.3,8,21.8,9.6c-3.4-0.3-17.7,18.3-24,6.5C352.2,343.8,354.3,328,354.5,328.1z"/>
		<path fill="#445500" d="M308.7,326.5c-23.3-7.3-14.3,30.3-17,36.1c3.9-4.1,42.5,3.6,37.6-18.2
			C328.8,343.8,308.8,326.1,308.7,326.5z"/>
		<path fill="#FFCC00" d="M350.5,313.4c3-5.1,6.5-5.5,10.1-5.2c5.1,0.3,6.6,6.6,11.3,8.7c-4.9,2.3-5.4,7.1-9.7,8.6
			c-5,1.4-9.2,0.1-11.8-3.8L350.5,313.4z"/>
		<path fill="#FFCC00" d="M313.7,313.9c-3-5.1-6.5-5.5-10.1-5.2c-5.1,0.3-6.6,6.6-11.3,8.7c4.9,2.3,5.4,7.1,9.7,8.6
			c5,1.4,9.2,0.1,11.8-3.8L313.7,313.9z"/>
		<path fill="#FFCC00" d="M328.1,298.9c-5.1-3-5.5-6.5-5.2-10.1c0.3-5.1,6.6-6.6,8.7-11.3c2.3,4.9,7.1,5.4,8.6,9.7
			c1.4,5,0.1,9.2-3.8,11.8L328.1,298.9z"/>
		<path fill="#FFCC00" d="M328.7,335.8c-5.1,3-5.5,6.5-5.2,10.1c0.3,5.1,6.6,6.6,8.7,11.3c2.3-4.9,7.1-5.4,8.6-9.7
			c1.4-5,0.1-9.2-3.8-11.8L328.7,335.8z"/>
		<path fill="#FFCC00" d="M345,304c-0.1-6,2.7-8.1,5.9-9.7c4.5-2.4,9,2.2,14.2,1.5c-3,4.5-0.9,8.9-3.7,12.4c-3.6,3.8-7.8,4.9-12,2.9
			L345,304z"/>
		<path fill="#FFCC00" d="M313.9,323.7c-5.3-2.8-8.4-1.3-11.3,0.9c-4.2,2.9-2.1,9.1-5.1,13.3c5.4-0.6,8.3,3.2,12.7,2.3
			c5-1.4,7.9-4.7,8.1-9.4L313.9,323.7z"/>
		<path fill="#FFCC00" d="M337.2,299.2c-3.1-5.1-1.8-8.3,0.2-11.4c2.7-4.3,8.9-2.7,13-5.9c-0.3,5.4,3.7,8.1,3,12.6
			c-1.1,5.1-4.2,8.1-8.9,8.6L337.2,299.2z"/>
		<path fill="#FFCC00" d="M320.4,332c-6,0.3-7.9,3.1-9.3,6.5c-2.1,4.6,2.8,8.9,2.3,14.1c4.3-3.3,8.8-1.5,12.1-4.5
			c3.6-3.8,4.4-8,2.2-12.2L320.4,332z"/>
		<path fill="#FFCC00" d="M349.5,324.5c5.4-2.5,8.5-0.8,11.3,1.5c4,3.2,1.6,9.2,4.4,13.6c-5.4-0.9-8.5,2.7-12.8,1.6
			c-4.9-1.7-7.6-5.1-7.6-9.8L349.5,324.5z"/>
		<path fill="#FFCC00" d="M318.9,304.1c0.4-6-2.2-8.2-5.4-10c-4.4-2.6-9.2,1.7-14.2,0.7c2.8,4.7,0.5,8.9,3.1,12.6
			c3.3,4,7.5,5.3,11.9,3.6L318.9,304.1z"/>
		<path fill="#FFCC00" d="M343.7,332.1c5.9,0.5,7.8,3.4,9.1,6.8c1.9,4.7-3.1,8.8-2.8,14c-4.2-3.4-8.8-1.8-12-4.9
			c-3.5-3.9-4.1-8.2-1.8-12.3L343.7,332.1z"/>
		<path fill="#FFCC00" d="M327,299.2c3.3-5,2.1-8.2,0.2-11.4c-2.5-4.4-8.8-3-12.8-6.3c0.1,5.4-4,8-3.5,12.5c1,5.1,3.9,8.3,8.6,8.9
			L327,299.2z"/>
		<path fill="#2B1100" d="M353.1,317.3c0,11.7-9.5,21.1-21.1,21.1c-11.7,0-21.1-9.5-21.1-21.1v0c0-11.7,9.5-21.1,21.1-21.1
			C343.6,296.2,353.1,305.6,353.1,317.3L353.1,317.3z"/>
	</g>
	<g>
		<path fill="#445500" d="M87.5,328.1c7.6-12.4,18.3,8,21.8,9.6c-3.4-0.3-17.7,18.3-24,6.5C85.2,343.8,87.4,328,87.5,328.1z"/>
		<path fill="#445500" d="M41.8,326.5c-23.3-7.3-14.3,30.3-17,36.1c3.9-4.1,42.5,3.6,37.6-18.2C61.9,343.8,41.9,326.1,41.8,326.5z"
			/>
		<path fill="#FFCC00" d="M83.6,313.4c3-5.1,6.5-5.5,10.1-5.2c5.1,0.3,6.6,6.6,11.3,8.7c-4.9,2.3-5.4,7.1-9.7,8.6
			c-5,1.4-9.2,0.1-11.8-3.8L83.6,313.4z"/>
		<path fill="#FFCC00" d="M46.7,313.9c-3-5.1-6.5-5.5-10.1-5.2c-5.1,0.3-6.6,6.6-11.3,8.7c4.9,2.3,5.4,7.1,9.7,8.6
			c5,1.4,9.2,0.1,11.8-3.8L46.7,313.9z"/>
		<path fill="#FFCC00" d="M61.2,298.9c-5.1-3-5.5-6.5-5.2-10.1c0.3-5.1,6.6-6.6,8.7-11.3c2.3,4.9,7.1,5.4,8.6,9.7
			c1.4,5,0.1,9.2-3.8,11.8L61.2,298.9z"/>
		<path fill="#FFCC00" d="M61.7,335.8c-5.1,3-5.5,6.5-5.2,10.1c0.3,5.1,6.6,6.6,8.7,11.3c2.3-4.9,7.1-5.4,8.6-9.7
			c1.4-5,0.1-9.2-3.8-11.8L61.7,335.8z"/>
		<path fill="#FFCC00" d="M78.1,304c-0.1-6,2.7-8.1,5.9-9.7c4.5-2.4,9,2.2,14.2,1.5c-3,4.5-0.9,8.9-3.7,12.4
			c-3.6,3.8-7.8,4.9-12,2.9L78.1,304z"/>
		<path fill="#FFCC00" d="M47,323.7c-5.3-2.8-8.4-1.3-11.3,0.9c-4.2,2.9-2.1,9.1-5.1,13.3c5.4-0.6,8.3,3.2,12.7,2.3
			c5-1.4,7.9-4.7,8.1-9.4L47,323.7z"/>
		<path fill="#FFCC00" d="M70.3,299.2c-3.1-5.1-1.8-8.3,0.2-11.4c2.7-4.3,8.9-2.7,13-5.9c-0.3,5.4,3.7,8.1,3,12.6
			c-1.1,5.1-4.2,8.1-8.9,8.6L70.3,299.2z"/>
		<path fill="#FFCC00" d="M53.5,332c-6,0.3-7.9,3.1-9.3,6.5c-2.1,4.6,2.8,8.9,2.3,14.1c4.3-3.3,8.8-1.5,12.1-4.5
			c3.6-3.8,4.4-8,2.2-12.2L53.5,332z"/>
		<path fill="#FFCC00" d="M82.6,324.5c5.4-2.5,8.5-0.8,11.3,1.5c4,3.2,1.6,9.2,4.4,13.6c-5.4-0.9-8.5,2.7-12.8,1.6
			c-4.9-1.7-7.6-5.1-7.6-9.8L82.6,324.5z"/>
		<path fill="#FFCC00" d="M51.9,304.1c0.4-6-2.2-8.2-5.4-10c-4.4-2.6-9.2,1.7-14.2,0.7c2.8,4.7,0.5,8.9,3.1,12.6
			c3.3,4,7.5,5.3,11.9,3.6L51.9,304.1z"/>
		<path fill="#FFCC00" d="M76.8,332.1c5.9,0.5,7.8,3.4,9.1,6.8c1.9,4.7-3.1,8.8-2.8,14c-4.2-3.4-8.8-1.8-12-4.9
			c-3.5-3.9-4.1-8.2-1.8-12.3L76.8,332.1z"/>
		<path fill="#FFCC00" d="M60.1,299.2c3.3-5,2.1-8.2,0.2-11.4c-2.5-4.4-8.8-3-12.8-6.3c0.1,5.4-4,8-3.5,12.5c1,5.1,3.9,8.3,8.6,8.9
			L60.1,299.2z"/>
		<path fill="#2B1100" d="M86.2,317.3c0,11.7-9.5,21.1-21.1,21.1s-21.1-9.5-21.1-21.1v0c0-11.7,9.5-21.1,21.1-21.1
			C76.7,296.2,86.2,305.6,86.2,317.3L86.2,317.3z"/>
	</g>
</g>
</svg>
