<?xml version="1.0" encoding="utf-8"?>
<!-- Generator: Adobe Illustrator 18.0.0, SVG Export Plug-In . SVG Version: 6.00 Build 0)  -->
<!DOCTYPE svg PUBLIC "-//W3C//DTD SVG 1.1//EN" "http://www.w3.org/Graphics/SVG/1.1/DTD/svg11.dtd">
<svg version="1.1" id="Layer_1" xmlns="http://www.w3.org/2000/svg" xmlns:xlink="http://www.w3.org/1999/xlink" x="0px" y="0px"
	 width="400px" height="401.2px" viewBox="0 0 400 401.2" enable-background="new 0 0 400 401.2" xml:space="preserve">
<g id="python-and-gtk_x2B_">
	<path fill="#2980B9" d="M198.9,349.2l-91.2,50.2c-1.4,0.7-3,0.8-4.4,0.1L6.8,349.2c-1.5-0.8-2.4-2.4-2.4-4V228.5
		c0-1.7,0.9-3.3,2.5-4.1l93.8-49.9c1.4-0.7,3-0.7,4.4,0l93.8,48.9c1.5,0.8,2.5,2.4,2.5,4.1v117.6
		C201.2,346.8,200.3,348.4,198.9,349.2z"/>
	<polygon fill="#5DADE2" points="17.4,227.1 105.4,271.1 188.6,224.6 102.8,182.4 	"/>
	<polygon fill="#5DADE2" points="109.9,278.3 109.6,389.7 194,343.8 194,231.5 	"/>
	<g>
		<path fill="#C0392B" d="M394.8,349.2l-91.2,50.2c-1.4,0.7-3,0.8-4.4,0.1l-96.4-50.3c-1.5-0.8-2.4-2.4-2.4-4l0.2-117.2
			c0-1.7,0.9-3.3,2.5-4.1l93.6-49.3c1.4-0.7,3-0.7,4.4,0l93.8,49.9c1.5,0.8,2.5,2.4,2.5,4.1v116.6
			C397.2,346.8,396.3,348.4,394.8,349.2z"/>
		<polygon fill="#EC7063" points="213.4,227.1 301.4,271.1 382.9,225.5 298.8,182.4 		"/>
		<polygon fill="#EC7063" points="305.9,278.3 305.6,389.7 390,343.8 390,231.5 		"/>
	</g>
	<g>
		<path fill="#16A085" d="M294.3,176.5l-91.2,48.9c-1.4,0.7-3,0.8-4.4,0.1l-96.4-50.3c-1.5-0.8-2.4-2.4-2.4-4V54.6
			c0-1.7,0.9-3.3,2.5-4.1l93.8-49.9c1.4-0.7,3-0.7,4.4,0l93.8,49.9c1.5,0.8,2.5,2.4,2.5,4.1v117.9
			C296.7,174.2,295.8,175.7,294.3,176.5z"/>
		<polygon fill="#48C9B0" points="112.9,53.2 200.9,97.1 284,50.6 198.3,8.5 		"/>
		<polygon fill="#48C9B0" points="205.4,104.3 205.1,215.8 289.5,169.9 289.5,57.6 		"/>
	</g>
	<rect y="1.2" fill="none" width="400" height="400"/>
	<g>
		<path fill="#445500" d="M269.8,342.8c7.3-8,17.4,23.2,20.7,27.6c-3.2-3-16.9,6.8-22.9-11.3C267.6,358.6,269.6,342.6,269.8,342.8z"
			/>
		<path fill="#445500" d="M226.2,305.5c-22.2-26.2-13.6,22.9-16.2,27.3c3.7-1.6,40.5,37,35.8,8.7
			C245.4,340.6,226.3,305.2,226.2,305.5z"/>
		<path fill="#FFCC00" d="M266,323.2c2.9-3.4,6.2-1.1,9.6,2c4.8,4.3,6.2,12.5,10.8,18.5c-4.7-1.3-5.2,3.7-9.2,2.2
			c-4.8-2.3-8.7-7-11.2-13.4L266,323.2z"/>
		<path fill="#FFCC00" d="M231,295.3c-2.9-8.1-6.2-11.2-9.6-13.7c-4.8-3.6-6.2,2.4-10.8,1c4.7,6.4,5.2,12.2,9.2,17.1
			c4.8,5.5,8.7,7.2,11.2,4.9L231,295.3z"/>
		<path fill="#FFCC00" d="M244.7,289.7c-4.9-7.4-5.2-11.6-4.9-15.4c0.3-5.5,6.3-2.2,8.3-5.9c2.2,7.3,6.7,11.6,8.2,17.5
			c1.3,6.8,0.1,10.4-3.6,10.3L244.7,289.7z"/>
		<path fill="#FFCC00" d="M245.2,331.4c-4.9-0.6-5.2,3-4.9,7.3c0.3,6,6.3,12.5,8.3,19.4c2.2-3.8,6.7-0.6,8.2-4.2
			c1.3-4.6,0.1-10.2-3.6-16.2L245.2,331.4z"/>
		<path fill="#FFCC00" d="M260.8,308.5c-0.1-6.8,2.5-7,5.6-6.3c4.3,0.8,8.6,9.5,13.5,12.7c-2.9,2.7-0.9,9.2-3.6,11
			c-3.4,1.5-7.4-0.5-11.5-6L260.8,308.5z"/>
		<path fill="#FFCC00" d="M231.2,306.5c-5-7.2-8-8-10.8-7.8c-4,0.1-2,8.5-4.9,11c5.1,3.5,7.9,10.1,12.1,12.4
			c4.8,2.3,7.5,0.8,7.7-4.3L231.2,306.5z"/>
		<path fill="#FFCC00" d="M253.4,297.1c-2.9-8.1-1.7-10.7,0.2-12.6c2.6-2.8,8.5,3.9,12.4,3.5c-0.3,5.8,3.5,12,2.9,16.5
			c-1.1,4.9-4,5.9-8.5,2.8L253.4,297.1z"/>
		<path fill="#FFCC00" d="M237.3,320.7c-5.7-4.3-7.5-2.6-8.9,0c-2,3.6,2.6,12.1,2.2,17.6c4.1-0.3,8.4,5.2,11.5,4.4
			c3.4-1.4,4.2-5.6,2.1-12L237.3,320.7z"/>
		<path fill="#FFCC00" d="M265,335c5.2,1.4,8.1,5.6,10.7,10.4c3.8,6.7,1.5,11.6,4.1,18.6c-5.1-5.2-8.1-3.5-12.2-8.2
			c-4.7-5.8-7.2-11.7-7.2-16.9L265,335z"/>
		<path fill="#FFCC00" d="M235.9,288.3c0.4-6.4-2.1-10.9-5.1-15.4c-4.2-6.3-8.7-5.2-13.6-10.2c2.6,7.4,0.4,10.4,2.9,16.5
			c3.2,7.1,7.1,11.8,11.3,13.2L235.9,288.3z"/>
		<path fill="#FFCC00" d="M259.6,339c5.7,5.1,7.4,9.9,8.7,14.7c1.8,6.8-2.9,7.5-2.7,13.5c-4-7.1-8.3-8.8-11.4-14.8
			c-3.3-7.1-3.9-12.4-1.7-15.2L259.6,339z"/>
		<path fill="#FFCC00" d="M243.7,289.2c3.1-3.1,2-7.6,0.2-12.6c-2.4-6.9-8.4-10.2-12.2-17c0.1,6.2-3.8,5.9-3.3,11.3
			c0.9,6.5,3.7,12.4,8.2,16.7L243.7,289.2z"/>
		<path fill="#2B1100" d="M268.5,329.7c0,13.1-9,16.4-20.1,7.3s-20.1-27-20.1-40.1v0c0-13.1,9-16.4,20.1-7.3
			C259.5,298.6,268.5,316.6,268.5,329.7L268.5,329.7z"/>
	</g>
</g>
</svg>
