<?xml version="1.0" encoding="utf-8"?>
<!-- Generator: Adobe Illustrator 18.0.0, SVG Export Plug-In . SVG Version: 6.00 Build 0)  -->
<!DOCTYPE svg PUBLIC "-//W3C//DTD SVG 1.1//EN" "http://www.w3.org/Graphics/SVG/1.1/DTD/svg11.dtd">
<svg version="1.1" id="Layer_1" xmlns="http://www.w3.org/2000/svg" xmlns:xlink="http://www.w3.org/1999/xlink" x="0px" y="0px"
	 width="400px" height="400px" viewBox="0 0 400 400" enable-background="new 0 0 400 400" xml:space="preserve">
<g id="sessions">
	<path fill="#E74C3C" d="M200,200H0V30C0,13.4,13.4,0,30,0h170V200z"/>
	<path fill="#3498DB" d="M400,200H200V0h170c16.6,0,30,13.4,30,30V200z"/>
	<path fill="#34495E" d="M200,400H30c-16.6,0-30-13.4-30-30V200h200V400z"/>
	<path fill="#1ABC9C" d="M370,400H200V200h200v170C400,386.6,386.6,400,370,400z"/>
	<rect fill="none" width="400" height="400"/>
	<g>
		<path fill="#445500" d="M136.4,114.3c13.5-22,32.5,14.2,38.6,17c-6-0.6-31.4,32.4-42.6,11.6C132.3,142.1,136,114.1,136.4,114.3z"
			/>
		<path fill="#445500" d="M55.1,111.4c-41.3-12.9-25.4,53.7-30.1,64c6.9-7.3,75.5,6.3,66.7-32.4C90.9,142.1,55.3,110.8,55.1,111.4z"
			/>
		<path fill="#FFCC00" d="M129.3,88.1c5.4-9.1,11.5-9.8,17.9-9.2c9,0.6,11.6,11.8,20.1,15.4c-8.8,4-9.7,12.6-17.1,15.3
			c-8.9,2.5-16.3,0.2-20.9-6.7L129.3,88.1z"/>
		<path fill="#FFCC00" d="M64,89.1C58.6,80,52.5,79.4,46,79.9C37,80.5,34.4,91.7,26,95.4c8.8,4,9.7,12.6,17.1,15.3
			c8.9,2.5,16.3,0.2,20.9-6.7L64,89.1z"/>
		<path fill="#FFCC00" d="M89.6,62.5c-9.1-5.4-9.8-11.5-9.2-17.9c0.6-9,11.8-11.6,15.4-20.1c4,8.8,12.6,9.7,15.3,17.1
			c2.5,8.9,0.2,16.3-6.7,20.9L89.6,62.5z"/>
		<path fill="#FFCC00" d="M90.6,127.9c-9.1,5.4-9.8,11.5-9.2,17.9c0.6,9,11.8,11.6,15.4,20.1c4-8.8,12.6-9.7,15.3-17.1
			c2.5-8.9,0.2-16.3-6.7-20.9L90.6,127.9z"/>
		<path fill="#FFCC00" d="M119.6,71.6c-0.2-10.6,4.7-14.3,10.5-17.2c8-4.2,16,4,25.2,2.7c-5.4,8-1.7,15.8-6.6,22
			c-6.3,6.8-13.8,8.7-21.4,5.2L119.6,71.6z"/>
		<path fill="#FFCC00" d="M64.5,106.6c-9.4-5-14.9-2.3-20.1,1.5c-7.4,5.2-3.8,16.1-9,23.6c9.6-1.1,14.8,5.7,22.6,4.1
			c8.9-2.5,14-8.3,14.4-16.7L64.5,106.6z"/>
		<path fill="#FFCC00" d="M105.8,63.1c-5.5-9-3.2-14.8,0.4-20.2c4.8-7.7,15.8-4.7,23.1-10.4c-0.6,9.6,6.5,14.4,5.4,22.3
			c-2,9.1-7.5,14.5-15.8,15.3L105.8,63.1z"/>
		<path fill="#FFCC00" d="M75.9,121.1c-10.6,0.5-14,5.5-16.6,11.5c-3.7,8.2,4.9,15.8,4.2,25c7.7-5.8,15.6-2.6,21.5-7.9
			c6.4-6.7,7.9-14.3,4-21.6L75.9,121.1z"/>
		<path fill="#FFCC00" d="M127.5,108c9.6-4.4,15-1.5,20,2.6c7.1,5.6,2.9,16.3,7.7,24.1c-9.5-1.7-15.1,4.8-22.8,2.8
			c-8.8-3-13.5-9.1-13.4-17.4L127.5,108z"/>
		<path fill="#FFCC00" d="M73.2,71.6c0.7-10.6-3.9-14.6-9.5-17.8c-7.8-4.6-16.2,3.1-25.3,1.3c4.9,8.3,0.8,15.8,5.4,22.3
			c5.9,7.1,13.3,9.4,21,6.4L73.2,71.6z"/>
		<path fill="#FFCC00" d="M117.4,121.3c10.6,0.8,13.8,6,16.2,12.1c3.4,8.4-5.4,15.6-5,24.8c-7.5-6.1-15.5-3.1-21.2-8.7
			c-6.2-6.9-7.3-14.5-3.2-21.8L117.4,121.3z"/>
		<path fill="#FFCC00" d="M87.7,63.1c5.8-8.8,3.7-14.6,0.4-20.2c-4.5-7.9-15.7-5.3-22.7-11.2c0.2,9.6-7,14.2-6.2,22.1
			c1.7,9.1,7,14.7,15.2,15.8L87.7,63.1z"/>
		<path fill="#2B1100" d="M133.9,95.1c0,20.7-16.8,37.5-37.5,37.5S59,115.8,59,95.1v0c0-20.7,16.8-37.5,37.5-37.5
			C117.2,57.7,133.9,74.4,133.9,95.1L133.9,95.1z"/>
	</g>
	<g>
		<path fill="#445500" d="M336.4,114.3c13.5-22,32.5,14.2,38.6,17c-6-0.6-31.4,32.4-42.6,11.6C332.3,142.1,336,114.1,336.4,114.3z"
			/>
		<path fill="#445500" d="M255.1,111.4c-41.3-12.9-25.4,53.7-30.1,64c6.9-7.3,75.5,6.3,66.7-32.4
			C290.9,142.1,255.3,110.8,255.1,111.4z"/>
		<path fill="#FFCC00" d="M329.3,88.1c5.4-9.1,11.5-9.8,17.9-9.2c9,0.6,11.6,11.8,20.1,15.4c-8.8,4-9.7,12.6-17.1,15.3
			c-8.9,2.5-16.3,0.2-20.9-6.7L329.3,88.1z"/>
		<path fill="#FFCC00" d="M264,89.1c-5.4-9.1-11.5-9.8-17.9-9.2c-9,0.6-11.6,11.8-20.1,15.4c8.8,4,9.7,12.6,17.1,15.3
			c8.9,2.5,16.3,0.2,20.9-6.7L264,89.1z"/>
		<path fill="#FFCC00" d="M289.6,62.5c-9.1-5.4-9.8-11.5-9.2-17.9c0.6-9,11.8-11.6,15.4-20.1c4,8.8,12.6,9.7,15.3,17.1
			c2.5,8.9,0.2,16.3-6.7,20.9L289.6,62.5z"/>
		<path fill="#FFCC00" d="M290.6,127.9c-9.1,5.4-9.8,11.5-9.2,17.9c0.6,9,11.8,11.6,15.4,20.1c4-8.8,12.6-9.7,15.3-17.1
			c2.5-8.9,0.2-16.3-6.7-20.9L290.6,127.9z"/>
		<path fill="#FFCC00" d="M319.6,71.6c-0.2-10.6,4.7-14.3,10.5-17.2c8-4.2,16,4,25.2,2.7c-5.4,8-1.7,15.8-6.6,22
			c-6.3,6.8-13.8,8.7-21.4,5.2L319.6,71.6z"/>
		<path fill="#FFCC00" d="M264.5,106.6c-9.4-5-14.9-2.3-20.1,1.5c-7.4,5.2-3.8,16.1-9,23.6c9.6-1.1,14.8,5.7,22.6,4.1
			c8.9-2.5,14-8.3,14.4-16.7L264.5,106.6z"/>
		<path fill="#FFCC00" d="M305.8,63.1c-5.5-9-3.2-14.8,0.4-20.2c4.8-7.7,15.8-4.7,23.1-10.4c-0.6,9.6,6.5,14.4,5.4,22.3
			c-2,9.1-7.5,14.5-15.8,15.3L305.8,63.1z"/>
		<path fill="#FFCC00" d="M275.9,121.1c-10.6,0.5-14,5.5-16.6,11.5c-3.7,8.2,4.9,15.8,4.2,25c7.7-5.8,15.6-2.6,21.5-7.9
			c6.4-6.7,7.9-14.3,4-21.6L275.9,121.1z"/>
		<path fill="#FFCC00" d="M327.5,108c9.6-4.4,15-1.5,20,2.6c7.1,5.6,2.9,16.3,7.7,24.1c-9.5-1.7-15.1,4.8-22.8,2.8
			c-8.8-3-13.5-9.1-13.4-17.4L327.5,108z"/>
		<path fill="#FFCC00" d="M273.2,71.6c0.7-10.6-3.9-14.6-9.5-17.8c-7.8-4.6-16.2,3.1-25.3,1.3c4.9,8.3,0.8,15.8,5.4,22.3
			c5.9,7.1,13.3,9.4,21,6.4L273.2,71.6z"/>
		<path fill="#FFCC00" d="M317.4,121.3c10.6,0.8,13.8,6,16.2,12.1c3.4,8.4-5.4,15.6-5,24.8c-7.5-6.1-15.5-3.1-21.2-8.7
			c-6.2-6.9-7.3-14.5-3.2-21.8L317.4,121.3z"/>
		<path fill="#FFCC00" d="M287.7,63.1c5.8-8.8,3.7-14.6,0.4-20.2c-4.5-7.9-15.7-5.3-22.7-11.2c0.2,9.6-7,14.2-6.2,22.1
			c1.7,9.1,7,14.7,15.2,15.8L287.7,63.1z"/>
		<path fill="#2B1100" d="M333.9,95.1c0,20.7-16.8,37.5-37.5,37.5c-20.7,0-37.5-16.8-37.5-37.5v0c0-20.7,16.8-37.5,37.5-37.5
			C317.2,57.7,333.9,74.4,333.9,95.1L333.9,95.1z"/>
	</g>
	<g>
		<path fill="#445500" d="M136.4,314.3c13.5-22,32.5,14.2,38.6,17c-6-0.6-31.4,32.4-42.6,11.6C132.3,342.1,136,314.1,136.4,314.3z"
			/>
		<path fill="#445500" d="M55.1,311.4c-41.3-12.9-25.4,53.7-30.1,64c6.9-7.3,75.5,6.3,66.7-32.4C90.9,342.1,55.3,310.8,55.1,311.4z"
			/>
		<path fill="#FFCC00" d="M129.3,288.1c5.4-9.1,11.5-9.8,17.9-9.2c9,0.6,11.6,11.8,20.1,15.4c-8.8,4-9.7,12.6-17.1,15.3
			c-8.9,2.5-16.3,0.2-20.9-6.7L129.3,288.1z"/>
		<path fill="#FFCC00" d="M64,289.1c-5.4-9.1-11.5-9.8-17.9-9.2c-9,0.6-11.6,11.8-20.1,15.4c8.8,4,9.7,12.6,17.1,15.3
			c8.9,2.5,16.3,0.2,20.9-6.7L64,289.1z"/>
		<path fill="#FFCC00" d="M89.6,262.5c-9.1-5.4-9.8-11.5-9.2-17.9c0.6-9,11.8-11.6,15.4-20.1c4,8.8,12.6,9.7,15.3,17.1
			c2.5,8.9,0.2,16.3-6.7,20.9L89.6,262.5z"/>
		<path fill="#FFCC00" d="M90.6,327.9c-9.1,5.4-9.8,11.5-9.2,17.9c0.6,9,11.8,11.6,15.4,20.1c4-8.8,12.6-9.7,15.3-17.1
			c2.5-8.9,0.2-16.3-6.7-20.9L90.6,327.9z"/>
		<path fill="#FFCC00" d="M119.6,271.6c-0.2-10.6,4.7-14.3,10.5-17.2c8-4.2,16,4,25.2,2.7c-5.4,8-1.7,15.8-6.6,22
			c-6.3,6.8-13.8,8.7-21.4,5.2L119.6,271.6z"/>
		<path fill="#FFCC00" d="M64.5,306.6c-9.4-5-14.9-2.3-20.1,1.5c-7.4,5.2-3.8,16.1-9,23.6c9.6-1.1,14.8,5.7,22.6,4.1
			c8.9-2.5,14-8.3,14.4-16.7L64.5,306.6z"/>
		<path fill="#FFCC00" d="M105.8,263.1c-5.5-9-3.2-14.8,0.4-20.2c4.8-7.7,15.8-4.7,23.1-10.4c-0.6,9.6,6.5,14.4,5.4,22.3
			c-2,9.1-7.5,14.5-15.8,15.3L105.8,263.1z"/>
		<path fill="#FFCC00" d="M75.9,321.1c-10.6,0.5-14,5.5-16.6,11.5c-3.7,8.2,4.9,15.8,4.2,25c7.7-5.8,15.6-2.6,21.5-7.9
			c6.4-6.7,7.9-14.3,4-21.6L75.9,321.1z"/>
		<path fill="#FFCC00" d="M127.5,308c9.6-4.4,15-1.5,20,2.6c7.1,5.6,2.9,16.3,7.7,24.1c-9.5-1.7-15.1,4.8-22.8,2.8
			c-8.8-3-13.5-9.1-13.4-17.4L127.5,308z"/>
		<path fill="#FFCC00" d="M73.2,271.6c0.7-10.6-3.9-14.6-9.5-17.8c-7.8-4.6-16.2,3.1-25.3,1.3c4.9,8.3,0.8,15.8,5.4,22.3
			c5.9,7.1,13.3,9.4,21,6.4L73.2,271.6z"/>
		<path fill="#FFCC00" d="M117.4,321.3c10.6,0.8,13.8,6,16.2,12.1c3.4,8.4-5.4,15.6-5,24.8c-7.5-6.1-15.5-3.1-21.2-8.7
			c-6.2-6.9-7.3-14.5-3.2-21.8L117.4,321.3z"/>
		<path fill="#FFCC00" d="M87.7,263.1c5.8-8.8,3.7-14.6,0.4-20.2c-4.5-7.9-15.7-5.3-22.7-11.2c0.2,9.6-7,14.2-6.2,22.1
			c1.7,9.1,7,14.7,15.2,15.8L87.7,263.1z"/>
		<path fill="#2B1100" d="M133.9,295.1c0,20.7-16.8,37.5-37.5,37.5S59,315.8,59,295.1v0c0-20.7,16.8-37.5,37.5-37.5
			C117.2,257.7,133.9,274.4,133.9,295.1L133.9,295.1z"/>
	</g>
	<g>
		<path fill="#445500" d="M336.4,314.3c13.5-22,32.5,14.2,38.6,17c-6-0.6-31.4,32.4-42.6,11.6C332.3,342.1,336,314.1,336.4,314.3z"
			/>
		<path fill="#445500" d="M255.1,311.4c-41.3-12.9-25.4,53.7-30.1,64c6.9-7.3,75.5,6.3,66.7-32.4
			C290.9,342.1,255.3,310.8,255.1,311.4z"/>
		<path fill="#FFCC00" d="M329.3,288.1c5.4-9.1,11.5-9.8,17.9-9.2c9,0.6,11.6,11.8,20.1,15.4c-8.8,4-9.7,12.6-17.1,15.3
			c-8.9,2.5-16.3,0.2-20.9-6.7L329.3,288.1z"/>
		<path fill="#FFCC00" d="M264,289.1c-5.4-9.1-11.5-9.8-17.9-9.2c-9,0.6-11.6,11.8-20.1,15.4c8.8,4,9.7,12.6,17.1,15.3
			c8.9,2.5,16.3,0.2,20.9-6.7L264,289.1z"/>
		<path fill="#FFCC00" d="M289.6,262.5c-9.1-5.4-9.8-11.5-9.2-17.9c0.6-9,11.8-11.6,15.4-20.1c4,8.8,12.6,9.7,15.3,17.1
			c2.5,8.9,0.2,16.3-6.7,20.9L289.6,262.5z"/>
		<path fill="#FFCC00" d="M290.6,327.9c-9.1,5.4-9.8,11.5-9.2,17.9c0.6,9,11.8,11.6,15.4,20.1c4-8.8,12.6-9.7,15.3-17.1
			c2.5-8.9,0.2-16.3-6.7-20.9L290.6,327.9z"/>
		<path fill="#FFCC00" d="M319.6,271.6c-0.2-10.6,4.7-14.3,10.5-17.2c8-4.2,16,4,25.2,2.7c-5.4,8-1.7,15.8-6.6,22
			c-6.3,6.8-13.8,8.7-21.4,5.2L319.6,271.6z"/>
		<path fill="#FFCC00" d="M264.5,306.6c-9.4-5-14.9-2.3-20.1,1.5c-7.4,5.2-3.8,16.1-9,23.6c9.6-1.1,14.8,5.7,22.6,4.1
			c8.9-2.5,14-8.3,14.4-16.7L264.5,306.6z"/>
		<path fill="#FFCC00" d="M305.8,263.1c-5.5-9-3.2-14.8,0.4-20.2c4.8-7.7,15.8-4.7,23.1-10.4c-0.6,9.6,6.5,14.4,5.4,22.3
			c-2,9.1-7.5,14.5-15.8,15.3L305.8,263.1z"/>
		<path fill="#FFCC00" d="M275.9,321.1c-10.6,0.5-14,5.5-16.6,11.5c-3.7,8.2,4.9,15.8,4.2,25c7.7-5.8,15.6-2.6,21.5-7.9
			c6.4-6.7,7.9-14.3,4-21.6L275.9,321.1z"/>
		<path fill="#FFCC00" d="M327.5,308c9.6-4.4,15-1.5,20,2.6c7.1,5.6,2.9,16.3,7.7,24.1c-9.5-1.7-15.1,4.8-22.8,2.8
			c-8.8-3-13.5-9.1-13.4-17.4L327.5,308z"/>
		<path fill="#FFCC00" d="M273.2,271.6c0.7-10.6-3.9-14.6-9.5-17.8c-7.8-4.6-16.2,3.1-25.3,1.3c4.9,8.3,0.8,15.8,5.4,22.3
			c5.9,7.1,13.3,9.4,21,6.4L273.2,271.6z"/>
		<path fill="#FFCC00" d="M317.4,321.3c10.6,0.8,13.8,6,16.2,12.1c3.4,8.4-5.4,15.6-5,24.8c-7.5-6.1-15.5-3.1-21.2-8.7
			c-6.2-6.9-7.3-14.5-3.2-21.8L317.4,321.3z"/>
		<path fill="#FFCC00" d="M287.7,263.1c5.8-8.8,3.7-14.6,0.4-20.2c-4.5-7.9-15.7-5.3-22.7-11.2c0.2,9.6-7,14.2-6.2,22.1
			c1.7,9.1,7,14.7,15.2,15.8L287.7,263.1z"/>
		<path fill="#2B1100" d="M333.9,295.1c0,20.7-16.8,37.5-37.5,37.5c-20.7,0-37.5-16.8-37.5-37.5v0c0-20.7,16.8-37.5,37.5-37.5
			C317.2,257.7,333.9,274.4,333.9,295.1L333.9,295.1z"/>
	</g>
</g>
</svg>
