<?xml version="1.0" encoding="utf-8"?>
<!-- Generator: Adobe Illustrator 18.0.0, SVG Export Plug-In . SVG Version: 6.00 Build 0)  -->
<!DOCTYPE svg PUBLIC "-//W3C//DTD SVG 1.1//EN" "http://www.w3.org/Graphics/SVG/1.1/DTD/svg11.dtd">
<svg version="1.1" id="Layer_1" xmlns="http://www.w3.org/2000/svg" xmlns:xlink="http://www.w3.org/1999/xlink" x="0px" y="0px"
	 width="400px" height="400px" viewBox="0 0 400 400" enable-background="new 0 0 400 400" xml:space="preserve">
<g id="tabbed-interface_1_">
	<path fill="#E74C3C" d="M245.3,324.7H194c-5.5,0-10-4.5-10-10V10c0-5.5,4.5-10,10-10h51.3c5.5,0,10,4.5,10,10v304.7
		C255.3,320.2,250.9,324.7,245.3,324.7z"/>
	<path fill="#2980B9" d="M184,324.7h-51.3c-5.5,0-10-4.5-10-10V10c0-5.5,4.5-10,10-10H184c5.5,0,10,4.5,10,10v304.7
		C194,320.2,189.5,324.7,184,324.7z"/>
	<path fill="#1ABC9C" d="M122.7,324.7H71.3c-5.5,0-10-4.5-10-10V10c0-5.5,4.5-10,10-10h51.3c5.5,0,10,4.5,10,10v304.7
		C132.7,320.2,128.2,324.7,122.7,324.7z"/>
	<path fill="#34495E" d="M61.3,324.7H10c-5.5,0-10-4.5-10-10V10C0,4.5,4.5,0,10,0h51.3c5.5,0,10,4.5,10,10v304.7
		C71.3,320.2,66.9,324.7,61.3,324.7z"/>
	<g>
		<path fill="#ECF0F1" d="M11.2,390c-0.6,0-1.2-0.5-1.2-1.2V54.5c0-0.6,0.5-1.2,1.2-1.2h377.7c0.6,0,1.2,0.5,1.2,1.2v334.4
			c0,0.6-0.5,1.2-1.2,1.2H11.2z"/>
		<path fill="#34495E" d="M380,63.3V380H20V63.3H380 M388.8,43.3H11.2C5,43.3,0,48.3,0,54.5v334.4C0,395,5,400,11.2,400h377.7
			c6.2,0,11.2-5,11.2-11.2V54.5C400,48.3,395,43.3,388.8,43.3L388.8,43.3z"/>
	</g>
	<rect x="0" y="0" fill="none" width="400" height="400"/>
	<g>
		<path fill="#445500" d="M263,251.2c23.4-38.1,56.3,24.6,67,29.4c-10.3-1.1-54.5,56.2-73.9,20.1C256,299.4,262.5,250.9,263,251.2z"
			/>
		<path fill="#445500" d="M122.2,246.3c-71.6-22.4-44.1,93.1-52.3,111c11.9-12.7,130.8,11,115.6-56.1
			C184.2,299.4,122.6,245.3,122.2,246.3z"/>
		<path fill="#FFCC00" d="M250.8,205.9c9.3-15.8,20-16.9,31.1-15.9c15.7,1,20.1,20.4,34.8,26.8c-15.2,7-16.8,21.8-29.7,26.5
			c-15.5,4.3-28.2,0.3-36.3-11.6L250.8,205.9z"/>
		<path fill="#FFCC00" d="M137.6,207.6c-9.3-15.8-20-16.9-31.1-15.9c-15.7,1-20.1,20.4-34.8,26.8c15.2,7,16.8,21.8,29.7,26.5
			c15.5,4.3,28.2,0.3,36.3-11.6L137.6,207.6z"/>
		<path fill="#FFCC00" d="M181.9,161.5c-15.8-9.3-16.9-20-15.9-31.1c1-15.7,20.4-20.1,26.8-34.8c7,15.2,21.8,16.8,26.5,29.7
			c4.3,15.5,0.3,28.2-11.6,36.3L181.9,161.5z"/>
		<path fill="#FFCC00" d="M183.7,274.8c-15.8,9.3-16.9,20-15.9,31.1c1,15.7,20.4,20.1,26.8,34.8c7-15.2,21.8-16.8,26.5-29.7
			c4.3-15.5,0.3-28.2-11.6-36.3L183.7,274.8z"/>
		<path fill="#FFCC00" d="M234.1,177.2c-0.3-18.3,8.2-24.9,18.2-29.8c13.9-7.3,27.8,6.9,43.6,4.7c-9.3,13.9-2.9,27.3-11.5,38.1
			c-11,11.8-23.9,15-37,9L234.1,177.2z"/>
		<path fill="#FFCC00" d="M138.4,237.9c-16.2-8.6-25.9-4-34.9,2.7c-12.8,9.1-6.5,27.9-15.7,41c16.6-2,25.7,9.8,39.1,7
			c15.5-4.4,24.3-14.5,24.9-28.9L138.4,237.9z"/>
		<path fill="#FFCC00" d="M210.1,162.5c-9.5-15.7-5.5-25.6,0.6-34.9c8.3-13.3,27.5-8.2,40-18.1c-1,16.7,11.3,25,9.3,38.7
			c-3.5,15.7-13,25.1-27.4,26.5L210.1,162.5z"/>
		<path fill="#FFCC00" d="M158.2,263.1c-18.3,0.8-24.3,9.6-28.7,19.9c-6.5,14.3,8.5,27.4,7.2,43.3c13.3-10.1,27.1-4.5,37.3-13.7
			c11.1-11.6,13.6-24.7,6.9-37.5L158.2,263.1z"/>
		<path fill="#FFCC00" d="M247.7,240.3c16.7-7.7,26-2.6,34.7,4.6c12.3,9.7,5,28.2,13.4,41.8c-16.5-2.9-26.2,8.4-39.5,4.9
			c-15.2-5.3-23.4-15.8-23.3-30.2L247.7,240.3z"/>
		<path fill="#FFCC00" d="M153.6,177.3c1.3-18.3-6.8-25.3-16.5-30.8c-13.5-8.1-28.2,5.3-43.8,2.2c8.5,14.4,1.4,27.4,9.4,38.6
			c10.3,12.4,23,16.3,36.5,11.1L153.6,177.3z"/>
		<path fill="#FFCC00" d="M230.1,263.5c18.3,1.4,24,10.5,28,20.9c6,14.5-9.4,27.1-8.7,43c-13-10.6-26.9-5.5-36.8-15
			c-10.7-12-12.7-25.2-5.5-37.7L230.1,263.5z"/>
		<path fill="#FFCC00" d="M178.7,162.5c10.1-15.3,6.4-25.4,0.6-34.9c-7.8-13.6-27.2-9.1-39.3-19.4c0.4,16.7-12.2,24.6-10.7,38.3
			c2.9,15.8,12.1,25.5,26.4,27.5L178.7,162.5z"/>
		<path fill="#2B1100" d="M258.8,218c0,35.9-29.1,65-64.9,65c-35.9,0-65-29.1-65-64.9v0c0-35.9,29.1-65,64.9-65
			C229.8,153.1,258.8,182.1,258.8,218L258.8,218z"/>
	</g>
</g>
</svg>
