<svg xmlns="http://www.w3.org/2000/svg" viewBox="0 0 166.16 166.19">
 <path d="m83.06 0c-7.397 18.14-11.858 29.998-20.09 47.594 5.05 5.352 11.247 11.585 21.313 18.625-10.821-4.453-18.203-8.923-23.719-13.563-10.54 21.993-27.05 53.32-60.56 113.53 26.338-15.205 46.754-24.579 65.781-28.16-.817-3.514-1.282-7.315-1.25-11.281l.031-.844c.418-16.874 9.196-29.85 19.594-28.969 10.398.881 18.48 15.282 18.06 32.16-.079 3.175-.437 6.23-1.063 9.06 18.821 3.682 39.02 13.03 65 28.03-5.123-9.432-9.696-17.934-14.06-26.03-6.878-5.331-14.05-12.27-28.688-19.781 10.06 2.614 17.261 5.629 22.875 9-44.4-82.66-47.994-93.65-63.22-129.37" style="fill:#1793d1;fill-rule:evenodd"/>
</svg>
