<svg xmlns="http://www.w3.org/2000/svg" xmlns:xlink="http://www.w3.org/1999/xlink" viewBox="0 0 594.66 622.5">
 <defs>
  <linearGradient xlink:href="#linearGradient3004" id="linearGradient2986" x1="412.96" y1="485.47" x2="294.94" y2="-43.677" gradientUnits="userSpaceOnUse"/>
  <linearGradient xlink:href="#linearGradient3004" id="linearGradient2994" x1="-67.69" y1="-1398.28" x2="323.02" y2="648.03" gradientUnits="userSpaceOnUse"/>
  <linearGradient id="linearGradient3004">
   <stop style="stop-color:#fff"/>
   <stop offset=".342" style="stop-color:#fff"/>
   <stop offset=".52" style="stop-color:#bebdf3"/>
   <stop offset=".754" style="stop-color:#8f82f9"/>
   <stop offset=".871" style="stop-color:#9f99c7"/>
   <stop offset="1" style="stop-color:#524c76"/>
  </linearGradient>
  <radialGradient xlink:href="#linearGradient3004" id="radialGradient3228" gradientUnits="userSpaceOnUse" gradientTransform="matrix(-.06604 4.19027-3.57375-.05627 2168.15-1171.42)" cx="332.72" cy="590.59" r="218.02"/>
  <radialGradient xlink:href="#linearGradient3004" id="radialGradient5851" cx="49.53" cy="320.09" r="31.949" gradientTransform="matrix(3.28737 0 0 2.51965 111.69-642.72)" gradientUnits="userSpaceOnUse"/>
 </defs>
 <g style="fill-rule:evenodd">
  <path d="m25.757 521.91c.068-26.26 22.392-62.924 54.11-96.23 21.2-22.26 42.727-41.799 89.66-81.81-32.462-17.812-82.951-39.3-108.28-67.45-9.374-10.414-26.363-34.01-23.07-65.53 6.716-64.25 86.01-161.75 198.73-182.36 37.504-6.859 80.56-1.908 116 14.02 111.18 49.984 247.15 174.16 263.88 234.79 5.888 21.342 4.757 55.36-5.395 74.32-12.581 23.498-56.14 71.22-115.72 120.47-93.5 77.27-224.52 160.25-322.35 174.21-31.611 4.511-63.908-.194-86.57-12.983-35.461-20.01-47.23-46.723-51.37-54.73-11-21.292-9.637-48.27-9.613-56.726m263.14-295.04c1.207-14.889 59.59-.066 55.904 11.725-3.892 12.44-57.29 5.355-55.904-11.725" transform="translate(-25.691-25.521)" style="fill:url(#linearGradient2994)"/>
  <g transform="translate(-25.691-25.521)">
   <path d="m201.13 319.26c-30.724 25.941-51.15 43.43-76.76 66.84-61.676 56.37-103.58 99.28-81.977 157.93 24.923 67.66 79.56 64.23 143.62 51.654 165.14-32.57 436.59-241.26 422.76-318.34-11.195-62.37-162.85-186.37-252.65-230.5-28.05-13.785-60.38-20.915-92.81-19.389-123.47 5.828-219.89 118.24-214.97 179.15 4.792 59.26 154.56 110.89 152.79 112.65m-18.534-206.86c-37.15 41.34-13.399 121.31 48.21 164.9 72.1 51.01 188.84 60.24 212.08 20.906 43.34-73.37-3.98-150.96-74.61-185.56-69.795-34.2-162.52-26.01-185.68-.245" style="fill:url(#linearGradient2986)"/>
   <path d="m309.3 275.57c52.16 7.25 97.12-13.639 104.15-65.14 5.355-39.23-54.689-82.1-90.79-91.99-30.15-8.256-95.6 2.36-100.01 59.38-4.587 59.27 56.24 93.53 86.65 97.75m-25.543-98.58c-34.28 53.1 49.77 69.43 62.64 59.746 55.48-41.753-47.536-83.14-62.64-59.746" style="fill:url(#radialGradient5851)"/>
  </g>
  <path d="m253.35 41.57c-60.63 6.39-72.25 14.194-127.18 55.753-18.41 13.929-52.29 47.819-60.975 88.03-3.307 15.313.602 28.533 11.63 37.804 35.31 29.688 94.42 53.774 142.9 77.06 14.202 6.82 4.799 19.19-18.1 39.01-57.792 50.03-135.93 110.93-141.38 157.34-2.57 21.868 4.916 51.583 31.459 66.79 31.01 17.764 95.37 6.17 138.35-9.835 62.806-23.388 145.31-75 210.81-125.74 68.11-52.76 131.44-119.77 134.57-130.7 3.847-13.421 3.463-25.818-3.96-40.07-11.658-22.382-27.24-39.01-43.978-57.628-44.903-47.34-92.41-88.93-149.25-120.81-41.05-23.02-77.16-42.03-124.89-36.996m89.07 106.13c43.805 21.18 88.79 76.81-.39 108.82-24.25 8.706-101.16-21.382-98.8-62.44 3.433-60.66 45.707-72.24 99.19-46.38" transform="translate(-25.691-25.521)" style="fill:url(#radialGradient3228)"/>
 </g>
</svg>
