<svg xmlns="http://www.w3.org/2000/svg" viewBox="0 0 100 100">
 <g transform="matrix(.16208 0 0 .16208-10.3-10.3)" style="fill-rule:evenodd;stroke-width:1.25">
  <path d="m708.3 259.26c-17.619 2.787-47.49-1.286-52.858 8.362-5.394 9.685 31.784 63.59 20.558 49.637-11.09-13.79-22.351-41.579-33.28-41.37-11.06.21-39.12 59.34-32.707 42.622l19.06-49.735c1.836-4.791 1.297-10.637-.666-15.377-6.852-16.546-13.705-33.09-20.557-49.637-6.793-16.403 22.548 41.579 33.542 41.37 11.09-.209 39.12-59.34 32.708-42.622-6.353 16.578-24.734 40.32-19.06 49.735 5.726 9.499 70.953 4.217 53.26 7.02" transform="translate(-30.786 89.29)" style="fill:#ffe600"/>
  <path d="m394.22 440.04c-309.16 267.6-385.91-140.91-201.7-277.72-84.18 101.9-100.47 457.91 201.7 277.72" transform="translate(-30.15 61.03)" style="fill:#5975bf"/>
  <path transform="matrix(1-.02079 0 1-18.286 97.45)" d="m500.8 493.56l-111.06-117.76-149.01 63.22 77.67-142.01-106.17-122.19 159.07 29.99 83.39-138.73 20.64 160.55 157.71 36.44-146.32 69.24 14.08 161.25" style="fill:#ffc600"/>
 </g>
</svg>
