<svg xmlns="http://www.w3.org/2000/svg" viewBox="0 0 193.8 175.03">
 <defs>
  <filter id="filter3573" style="color-interpolation-filters:sRGB">
   <feGaussianBlur stdDeviation="1.62849"/>
  </filter>
  <filter id="filter3291" style="color-interpolation-filters:sRGB">
   <feGaussianBlur stdDeviation=".40063"/>
  </filter>
  <filter id="filter3546" style="color-interpolation-filters:sRGB">
   <feGaussianBlur stdDeviation=".15992"/>
  </filter>
  <linearGradient id="linearGradient3538" gradientUnits="userSpaceOnUse" x1="-532.09" y1="397.48" x2="-440.9" y2="474.46">
   <stop style="stop-color:#c7f994"/>
   <stop offset="1" style="stop-color:#87cf3e"/>
  </linearGradient>
  <linearGradient id="linearGradient4136" gradientUnits="userSpaceOnUse" x1="70.49" y1="496.39" x2="113.64" y2="455.88">
   <stop style="stop-color:#3d3d3d"/>
   <stop offset="1" style="stop-opacity:.114"/>
  </linearGradient>
 </defs>
 <g transform="translate(568.33-359.13)">
  <g style="fill-rule:evenodd">
   <path transform="matrix(1.58456 0 0 1.58456-1003.45-281.64)" d="m331.79 510.93c-21.29 0-39.766-16.14-39.766-37.411l-.019-21.992v-6.586h-13.498v-36.651l56.92.268 17.806.038c21.309 0 39.766 16.12 39.766 37.411v64.923h-61.21" style="opacity:.26;filter:url(#filter3573)"/>
   <path d="m-393.17 501.25c0-22.365 0-75.12 0-75.12 0-25.1-22.01-45.44-49.17-45.44h-28.19v-.061l-76.23-.333v27.41c0 0 6.224 0 11.702 0 8.168 0 9.611 5.639 9.611 13.444l.061 48.46c0 25.1 22.01 45.44 49.14 45.44h66.975c8.586 0 16.1-5.438 16.1-13.794" style="fill:url(#linearGradient3538)"/>
  </g>
  <path transform="matrix(1.59302 0 0 1.59302-627.52-289.76)" d="m142.94 500.53c-10.752-7.409-18.367-15.92-24.781-27.19-12.644-23.358-9.688-34.953-41-37.688-9.04 0-15.05-2-24.563-2v3.313c0 0 3.759 1.907 7.06 1.907 4.927 0 5.781 3.418 5.781 8.125l.031 29.16c0 15.14 13.295 27.406 29.656 27.406h40.38c2.964 0 5.626-1.168 7.438-3.03" style="fill:url(#linearGradient4136);opacity:.175;filter:url(#filter3291)"/>
  <g style="fill-rule:evenodd">
   <path transform="matrix(1.59302 0 0 1.59302-627.52-289.76)" d="m105.52 438.54c-3.837 0-7.246 1.424-9.985 4.191-2.738 2.765-4.175 6.218-4.175 10.114v19.695h8.933v-19.695c0-1.493.487-2.661 1.554-3.738 1.07-1.081 2.203-1.57 3.674-1.57 1.502 0 2.618.487 3.69 1.57 1.066 1.077 1.554 2.245 1.554 3.738v19.695h8.933v-19.695c0-1.493.487-2.661 1.554-3.738 1.072-1.083 2.188-1.57 3.69-1.57 1.471 0 2.604.489 3.674 1.57 1.066 1.077 1.554 2.245 1.554 3.738l.049 23.01c0 4.909-4.675 9.05-10.681 9.05l-28.806-.113c-4.635 0-8.593-4.511-8.593-10.309v-43.34h-8.447v45c0 4.775 1.747 8.962 5.146 12.348 2.905 2.868 6.399 4.564 10.325 4.984v.162h32.07c4.929 0 9.259-1.833 12.752-5.389h.016c2.971-3.052 4.708-6.71 5.13-10.826l-.032-24.582c0-3.896-1.437-7.349-4.175-10.114-2.739-2.767-6.148-4.191-9.985-4.191-3.766 0-7.06 1.4-9.726 3.965-2.657-2.56-5.929-3.965-9.694-3.965" style="fill-opacity:.08;filter:url(#filter3546)"/>
   <path d="m-460.56 409.22c-6.112 0-11.543 2.269-15.906 6.677-4.361 4.405-6.651 9.905-6.651 16.11v31.374h14.23v-31.374c0-2.379.776-4.239 2.475-5.955 1.704-1.721 3.509-2.501 5.852-2.501 2.392 0 4.17.775 5.878 2.501 1.699 1.716 2.475 3.576 2.475 5.955v31.374h14.23v-31.374c0-2.379.776-4.239 2.475-5.955 1.708-1.725 3.485-2.501 5.878-2.501 2.343 0 4.148.779 5.852 2.501 1.699 1.716 2.475 3.576 2.475 5.955l.077 36.659c0 7.82-7.447 14.411-17.01 14.411l-45.888-.18c-7.383 0-13.689-7.186-13.689-16.422v-69.03h-13.457v71.69c0 7.606 2.783 14.276 8.198 19.67 4.628 4.568 10.194 7.529 16.447 8.198h51.1c7.852 0 14.75-2.919 20.314-8.585h.026c4.733-4.863 7.5-10.689 8.172-17.246l-.051-39.16c0-6.207-2.29-11.707-6.651-16.11-4.363-4.408-9.794-6.677-15.906-6.677-5.999 0-11.249 2.231-15.494 6.316-4.232-4.078-9.445-6.316-15.442-6.316" style="fill:#fff"/>
   <path d="m-468.93 482.94v14.05h33.425c7.852 0 14.709-2.928 20.274-8.594h.048c4.733-4.863 7.494-10.678 8.166-17.235v-7.976h-14.196v5.46c0 7.82-7.43 14.386-16.998 14.386l-30.719-.095" style="fill:#52a800;opacity:.3"/>
   <path d="m-476.69 525.45c-32.35 0-60.42-24.522-60.42-56.84l-.029-39.24v-10.01h-20.508v-49.858l86.48.407 27.05.058c32.376 0 60.42 24.493 60.42 56.84v98.64h-93m79.82-26.46c0-21.489 0-72.18 0-72.18 0-24.11-21.15-43.662-47.24-43.662h-27.08v-.058l-73.25-.32v23.417c0 0 2.942 0 8.205 0 5.57 0 12.273 5.235 12.273 12.917l.058 49.48c0 24.11 21.15 43.662 47.21 43.662h64.35c8.25 0 15.469-5.225 15.469-13.254" style="fill:#fff"/>
  </g>
 </g>
</svg>
