<svg xmlns="http://www.w3.org/2000/svg" viewBox="0 0 61.14 53.869">
 <g transform="translate(-209.43-719.71)" style="fill-rule:evenodd">
  <g style="fill:#020001">
   <path d="m265.45 766.72c-1.174-.271-2.419-.441-3.679-.441-2.154 0-4.114.375-5.56.975-.157.08-.271.246-.271.436 0 .068.018.139.044.197.171.496-.111 1.035-1.51 1.342-2.074.455-3.385 2.596-4.133 3.307-.88.836-3.364 1.348-2.991.85.292-.389 1.412-1.604 2.092-2.916.608-1.174 1.15-1.506 1.897-2.627.218-.328 1.066-1.482 1.313-2.393.279-.893.185-2.01.292-2.471.15-.662.779-2.104.824-2.918.028-.457-1.919.658-2.843.658-.924 0-1.825-.553-2.65-.594-1.021-.049-1.678.789-2.604.643-.526-.086-.972-.549-1.894-.584-1.313-.051-2.919.73-5.934.633-2.966-.098-5.704-3.746-6.079-4.328-.438-.682-.974-.682-1.556-.148-.584.535-1.303.117-1.508-.24-.389-.682-1.431-2.674-3.04-3.088-2.227-.578-3.354 1.23-3.21 2.672.15 1.461 1.095 1.871 1.532 2.65.438.777.663 1.279 1.485 1.625.584.242.802.604.628 1.084-.154.416-.76.51-1.161.531-.849.041-1.442-.189-1.876-.469-.504-.32-.914-.768-1.355-1.525-.509-.838-1.313-1.203-2.246-1.203-.446 0-.864.119-1.233.311-1.467.76-3.21 1.213-5.088 1.213h-2.117c-1.029-3.057-1.589-6.331-1.589-9.737 0-16.818 13.634-30.452 30.454-30.452 16.819 0 30.452 13.634 30.452 30.452-.0001 6.104-1.795 11.787-4.886 16.555"/>
   <path d="m246.59 763.93c.158.152.428.664.098 1.318-.184.344-.384.588-.742.873-.427.344-1.264.738-2.414.012-.616-.393-.653-.523-1.505-.414-.61.08-.851-.533-.633-1.047.22-.508 1.118-.92 2.238-.268.503.297 1.287.922 1.973.367.287-.229.456-.379.851-.836.02-.02.044-.031.072-.031.024 0 .047.001.062.026"/>
  </g>
  <path d="m257.07 742.06c-.301 1.014-.729 2.305-2.632 3.284-.278.141-.383-.09-.257-.31.722-1.223.847-1.53 1.058-2.01.292-.705.445-1.708-.137-3.804-1.144-4.121-3.535-9.629-5.271-11.418-1.677-1.724-4.712-2.209-7.458-1.506-1.012.259-2.988 1.288-6.656.462-6.349-1.429-7.287 1.749-7.652 3.133-.364 1.385-1.24 5.321-1.24 5.321-.291 1.601-.673 4.387 9.183 6.266 4.592.874 4.825 2.063 5.03 2.914.363 1.531.946 2.406 1.603 2.844.656.438 0 .799-.729.874-1.955.203-9.182-1.87-13.457-4.299-3.499-2.138-3.558-4.063-2.755-5.696-5.285-.57-9.25.496-9.969 2.998-1.235 4.291 9.438 11.625 21.592 15.303 12.752 3.863 25.869 1.168 27.326-6.852.663-3.639-2.405-6.333-7.577-7.501" style="fill:#e03127"/>
  <g style="fill:#020001">
   <path d="m269.21 765.39h.207l.308.51h.2l-.337-.52c.175-.018.307-.111.307-.32 0-.232-.139-.336-.415-.336h-.447v1.176h.177v-.51m0-.151v-.365h.245c.124 0 .254.027.254.172 0 .182-.134.193-.286.193h-.213"/>
   <path d="m270.57 765.32c0 .635-.515 1.15-1.153 1.15-.636 0-1.152-.516-1.152-1.15 0-.639.516-1.152 1.152-1.152.639-.0001 1.153.513 1.153 1.152m-1.153-.948c-.521 0-.947.422-.947.947 0 .525.425.945.947.945.521 0 .95-.42.95-.945 0-.525-.429-.947-.95-.947"/>
   <path d="m237.51 734.21c-3.517.255-3.883.635-4.542 1.337-.929.99-2.152-1.284-2.152-1.284-.736-.155-1.625-1.339-1.146-2.444.474-1.093 1.348-.766 1.622-.428.333.415 1.043 1.093 1.967 1.069.922-.022 1.989-.217 3.475-.217 1.504 0 2.518.563 2.575 1.043.049.413-.122.802-1.799.924"/>
   <path d="m241.21 728.4c-.005 0-.001 0-.015 0-.055 0-.099-.041-.099-.092 0-.037.023-.068.056-.083.681-.36 1.699-.648 2.862-.767.35-.035.691-.054 1.021-.058.058 0 .115 0 .174.002 1.951.044 3.515.821 3.492 1.733-.024.912-1.623 1.617-3.577 1.574-.631-.016-1.225-.106-1.734-.255-.062-.015-.106-.065-.106-.125 0-.062.044-.114.106-.129 1.219-.281 2.04-.742 1.981-1.179-.076-.577-1.669-.889-3.557-.7-.208.022-.409.05-.604.079"/>
  </g>
 </g>
</svg>
