<svg version="1.1" xmlns="http://www.w3.org/2000/svg" xmlns:xlink="http://www.w3.org/1999/xlink" width="128" height="32" viewBox="0 0 128 32" style="display: none;">
<defs>
<g id="icon-github">
	<path class="path1" d="M15.999 0c-8.834 0-15.999 7.345-15.999 16.405 0 7.248 4.584 13.396 10.942 15.566 0.8 0.15 1.092-0.357 1.092-0.792 0-0.389-0.014-1.421-0.022-2.79-4.45 0.991-5.389-2.199-5.389-2.199-0.728-1.895-1.777-2.4-1.777-2.4-1.453-1.017 0.11-0.997 0.11-0.997 1.606 0.116 2.451 1.691 2.451 1.691 1.427 2.507 3.745 1.783 4.657 1.363 0.145-1.059 0.559-1.783 1.016-2.192-3.553-0.415-7.288-1.822-7.288-8.108 0-1.792 0.624-3.255 1.647-4.402-0.165-0.415-0.714-2.083 0.157-4.342 0 0 1.343-0.441 4.399 1.681 1.276-0.364 2.645-0.545 4.006-0.552 1.359 0.007 2.728 0.188 4.006 0.552 3.055-2.122 4.395-1.681 4.395-1.681 0.873 2.259 0.324 3.927 0.16 4.342 1.025 1.147 1.644 2.61 1.644 4.402 0 6.302-3.741 7.689-7.305 8.095 0.574 0.507 1.085 1.508 1.085 3.038 0 2.192-0.020 3.962-0.020 4.5 0 0.439 0.289 0.95 1.1 0.79 6.353-2.174 10.933-8.319 10.933-15.565 0-9.061-7.164-16.405-16.001-16.405z"></path>
</g>
<g id="icon-google_plus">
	<path class="path1" d="M12.008 13.312c-0.319-2.432-2.044-4.352-3.896-4.416s-3.066 1.792-2.747 4.224c0.319 2.432 2.044 4.416 3.896 4.48 1.852 0 3.066-1.92 2.747-4.288z"></path>
	<path class="path2" d="M13.732 26.112c0-0.256 0-0.512-0.064-0.768-0.319-1.152-1.341-1.792-2.874-2.816-0.511-0.192-1.15-0.256-1.788-0.256-2.747 0-5.174 1.664-5.174 3.712 0 0.128 0 0.256 0 0.32 1.15 1.344 2.555 2.56 4.152 3.456 0.192 0 0.383 0 0.575 0 3.832 0.064 5.174-1.536 5.174-3.648z"></path>
	<path class="path3" d="M15.968 0c-8.814 0-15.968 7.168-15.968 16 0 3.008 0.83 5.76 2.236 8.128 1.214-1.472 3.385-2.56 6.004-2.56 0.447 0 0.83 0 1.214 0-0.575-0.512-0.958-1.216-0.958-1.984 0-0.448 0.128-0.96 0.383-1.344-0.192 0-0.447 0-0.639 0-3.257 0-5.429-2.432-5.429-5.312 0-2.816 3.002-5.44 6.196-5.44 1.788 0 7.154 0 7.154 0l-1.597 1.472h-2.236c1.533 0.384 2.299 2.368 2.299 4.16 0 1.536-0.83 2.816-2.044 3.776-1.15 0.896-1.341 1.28-1.341 2.048 0 0.64 1.214 1.792 1.852 2.24 1.916 1.344 2.491 2.56 2.491 4.672 0 2.24-1.916 4.544-5.429 5.056 1.788 0.704 3.768 1.088 5.876 1.088 8.814 0 15.968-7.168 15.968-16-0.064-8.832-7.218-16-16.032-16zM24.399 13.952v4.48h-2.236v-4.48h-4.471v-2.24h4.471v-4.48h2.236v4.48h4.471v2.24h-4.471z"></path>
</g>
<g id="icon-twitter">
	<path class="path1" d="M32 16c0 8.832-7.168 16-16 16s-16-7.168-16-16c0-8.832 7.168-16 16-16s16 7.168 16 16zM27.328 8.96c-0.832 0.384-1.728 0.64-2.688 0.704 0.96-0.576 1.664-1.472 2.048-2.56-0.896 0.512-1.92 0.896-2.944 1.152-0.832-0.896-2.048-1.472-3.392-1.472-2.56 0-4.672 2.112-4.672 4.672 0 0.384 0.064 0.704 0.128 1.088-3.84-0.192-7.296-2.048-9.6-4.864-0.384 0.704-0.64 1.472-0.64 2.368 0 1.6 0.832 3.008 2.048 3.84-0.768 0-1.472-0.256-2.112-0.576v0.064c0 2.24 1.6 4.16 3.712 4.544-0.384 0.128-0.832 0.192-1.216 0.192-0.32 0-0.576 0-0.896-0.064 0.576 1.856 2.304 3.2 4.352 3.2-1.6 1.216-3.584 1.984-5.76 1.984-0.384 0-0.768 0-1.088-0.064 2.048 1.344 4.48 2.112 7.104 2.112 8.576 0 13.248-7.104 13.248-13.248v-0.576c0.96-0.704 1.728-1.536 2.368-2.496z"></path>
</g>
</defs>
</svg>
